<?xml version="1.0" encoding="utf-8"?>
<!-- Generator: Adobe Illustrator 22.1.0, SVG Export Plug-In . SVG Version: 6.00 Build 0)  -->
<svg version="1.1" id="Layer_1" xmlns="http://www.w3.org/2000/svg" xmlns:xlink="http://www.w3.org/1999/xlink" x="0px" y="0px"
	 viewBox="0 0 102.2 142" style="enable-background:new 0 0 102.2 142;" xml:space="preserve">
<style type="text/css">
	.st0{fill:none;stroke:#272525;stroke-width:3.6222;}
	.st1{fill:none;stroke:#272525;stroke-width:4.8296;}
	.st2{fill:#272525;}
	.st3{fill:none;stroke:#272525;stroke-width:0.277;stroke-miterlimit:3.864;}
	.st4{fill:none;stroke:#272525;stroke-width:1.2059;stroke-miterlimit:3.864;}
</style>
<g>
	<path class="st0" d="M18.7,41.5l-0.2,20.1c-1.6,39.4,32.1,56.3,32.1,56.3h0.9c0,0,33.7-16.8,32.1-56.3l-0.2-20.1H23.5L18.7,41.5z"
		/>
	<line class="st1" x1="27.2" y1="95.1" x2="75" y2="95.1"/>
	<g>
		<path class="st2" d="M47.1,45.2l2.1-3.3h4.4l2,3.2c0,0-1.5,0.3-4.4,0.3C48.3,45.4,47.1,45.2,47.1,45.2"/>
		<path class="st3" d="M47.1,45.2l2.1-3.3h4.4l2,3.2c0,0-1.5,0.3-4.4,0.3C48.3,45.4,47.1,45.2,47.1,45.2z"/>
		<path class="st4" d="M46.1,47.8l-1.9,3.1 M42.8,53.5l-1.9,3.1 M39.2,59.6l-1.9,3.1 M35.8,65.3l-1.9,3.1 M32.6,70.8l-1.9,3.1
			 M29.1,76.5l-1.9,3.1 M47.8,48.4l-1.3,3.4 M45.5,54.6l-1.3,3.3 M43,61.2l-1.3,3.4 M40.7,67.4l-1.3,3.4 M38.4,73.4l-1.3,3.4
			 M36,79.7L34.7,83 M49.4,48.8l-0.7,3.5 M48.4,55.3l-0.7,3.5 M47.1,62.2l-0.7,3.5 M46,68.8l-0.7,3.5 M45,75.1l-0.7,3.5 M43.8,81.7
			l-0.7,3.5 M51.1,48.9v3.6 M51.1,55.5v3.6 M51.1,62.6v3.6 M51.2,69.2v3.6 M51.2,75.5v3.6 M51.2,82.3v3.6 M56.1,47.8l1.9,3.1
			 M59.4,53.5l1.9,3.1 M63,59.6l1.9,3.1 M66.4,65.3l1.9,3.1 M69.6,70.8l1.9,3.1 M73.1,76.5l1.9,3.1 M54.4,48.4l1.3,3.4 M56.7,54.6
			l1.3,3.3 M59.2,61.2l1.3,3.4 M61.5,67.4l1.3,3.4 M63.8,73.4l1.3,3.4 M66.2,79.7l1.3,3.4 M52.7,48.8l0.7,3.5 M53.8,55.3l0.7,3.5
			 M55,62.2l0.7,3.5 M56.1,68.8l0.7,3.5 M57.2,75.1l0.7,3.5 M58.4,81.7l0.7,3.5"/>
	</g>
</g>
<g>
	<path class="st2" d="M26.5,122.5h-3.7v-2.1h9.9v2.1H29v13.6h-2.5V122.5z"/>
	<path class="st2" d="M34.5,124.2l2,8.9l0,0l1.9-8.9h2.5l-3.3,12.3c-0.9,3.2-1.7,3.7-4.1,3.6c-0.3,0-0.6,0-0.9-0.1v-1.9
		c0.3,0,0.5,0.1,0.8,0.1c0.8,0,1.3-0.2,1.6-0.9l0.3-1l-3.4-12.1C31.9,124.2,34.5,124.2,34.5,124.2z"/>
	<path class="st2" d="M42.8,124.2H45v1.5l0,0c0.5-1.1,1.4-1.8,2.7-1.8c2.7,0,3.8,2.3,3.8,6.4c0,5-2,6.1-3.7,6.1
		c-1.3,0-2.2-0.6-2.7-1.7l0,0v5.3h-2.4v-15.8H42.8z M47.1,134.5c1.4,0,2-1,2-4.3c0-2.7-0.4-4.4-2-4.4s-2,1.7-2,4.2
		C45.1,132.8,45.4,134.5,47.1,134.5z"/>
	<path class="st2" d="M56,130.4v0.7c0,1.6,0.2,3.6,2,3.6c1.7,0,1.9-1.9,1.9-2.6h2.2c0,2.6-1.6,4.3-4.2,4.3c-1.9,0-4.3-0.6-4.3-6.1
		c0-3.1,0.7-6.4,4.4-6.4c3.3,0,4.2,2,4.2,5.3v1.3L56,130.4L56,130.4z M59.8,128.8v-0.6c0-1.5-0.5-2.6-1.8-2.6c-1.5,0-2,1.5-2,3v0.2
		H59.8z"/>
	<path class="st2" d="M69.8,130.4l5.4-9.9h2.6v10.1h1.7v2h-1.7v3.5h-2.4v-3.5h-5.6V130.4z M75.3,124.1L75.3,124.1l-3.5,6.4h3.5
		V124.1z"/>
</g>
<g>
	<path class="st2" d="M12.4,20.3h8.5v2.1h-6v4.4h5.6v2.1h-5.6v5h6.2V36h-8.7C12.4,36,12.4,20.3,12.4,20.3z"/>
	<path class="st2" d="M23.6,20.3h3.1L31.2,32l0,0V20.3h2.4V36h-3.1l-4.6-12l0,0v12h-2.4L23.6,20.3L23.6,20.3z"/>
	<path class="st2" d="M40,36V24.7h-3.2V23H37c1.5,0,3.2-0.4,3.7-2.3v-0.3h1.8V36H40z"/>
	<path class="st2" d="M47,30.3l5.4-9.9H55v10.1h1.7v2H55V36h-2.4v-3.5H47V30.3z M52.6,24L52.6,24l-3.5,6.4h3.5V24z"/>
	<path class="st2" d="M64.9,24.2c0-0.9-0.4-2-1.7-2c-2.4,0-2.5,3.1-2.5,5.4h0.1c0.6-1.1,1.7-1.7,3-1.7c2.1,0,3.9,1.5,3.9,4.6
		c0,3.6-1.5,5.7-4.8,5.7c-3.9,0-4.7-3-4.7-7.5c0-4.7,0.9-8.4,5-8.4c2.7,0,4.2,1.2,4.2,3.8h-2.5V24.2z M63.1,34.5
		c1.5,0,2.1-1.5,2.1-3.3c0-2.2-0.6-3.4-2.1-3.4c-1.8,0-2.2,1.6-2.2,3.5C60.9,33.1,61.6,34.5,63.1,34.5z"/>
	<path class="st2" d="M74.1,20.4c3,0,4.7,1.9,4.7,7.9c0,6.1-1.7,7.9-4.7,7.9s-4.7-1.9-4.7-7.9C69.4,22.3,71.1,20.4,74.1,20.4z
		 M74.1,34.5c1.7,0,2.2-1.7,2.2-6.2s-0.4-6.2-2.2-6.2c-1.7,0-2.2,1.6-2.2,6.2S72.3,34.5,74.1,34.5z"/>
	<path class="st2" d="M80.6,31.8H83v0.4c0,1.2,0.6,2.2,2,2.2c1.7,0,2.2-1.7,2.2-3.5s-0.5-3.3-2.1-3.3c-1.1,0-1.8,0.6-2,1.4l-2.2-0.1
		l0.8-8.2h7.5v2h-5.6l-0.5,4.1l0,0c0.7-0.7,1.6-1.2,2.6-1.2c3.3,0,4.1,2.8,4.1,5.1c0,3.1-1.4,5.5-4.8,5.5c-2.8,0-4.4-1.4-4.4-4.2
		V31.8z"/>
</g>
</svg>
