<?xml version="1.0" encoding="utf-8"?>
<!-- Generator: Adobe Illustrator 22.1.0, SVG Export Plug-In . SVG Version: 6.00 Build 0)  -->
<svg version="1.1" id="Layer_1" xmlns="http://www.w3.org/2000/svg" xmlns:xlink="http://www.w3.org/1999/xlink" x="0px" y="0px"
	 viewBox="0 0 102.2 142" style="enable-background:new 0 0 102.2 142;" xml:space="preserve">
<style type="text/css">
	.st0{fill:#272525;}
	.st1{fill:none;stroke:#272525;stroke-width:0.3729;stroke-miterlimit:3.864;}
	.st2{fill:none;stroke:#272525;stroke-width:0.7485;stroke-miterlimit:3.864;}
	.st3{fill:none;stroke:#272525;stroke-width:7.353493e-02;stroke-miterlimit:3.864;}
	.st4{fill:none;stroke:#272525;stroke-width:0.2232;stroke-miterlimit:3.864;}
	.st5{fill:none;stroke:#272525;stroke-width:3.6222;}
	.st6{fill:none;stroke:#272525;stroke-width:4.8296;}
</style>
<g>
	<g>
		<path class="st0" d="M51.5,52.5c0.7,2.1,1.5,3.2,2.2,4c0.6,0.7,2.4,0.2,4.4,0c1.9-0.2,10.6-1.2,12.9-1.4c2.3-0.2,3.7-0.3,4.5,1.3
			s-1,5.3-1,5.3H53c0,0-2.7-0.7-5.6,2.6c1.5,1.7,1.7,1.8,1.7,1.8s1.6-1.3,1.8-1.4c0.3-0.2,0.5-0.9,1.6,0.2s12.2,11.8,12.2,11.8
			s5.8,3.5,7.9-1.9c2.3-5.8,5.9-16,5.9-16.9s0-5.1-5.2-5.2c-4.8,0.5-15.9,1.7-15.9,1.7s-1.8,0.5-2.2-0.6c-0.5-1.1-0.8-1.9-0.8-1.9
			S52.5,50.4,51.5,52.5"/>
		<path class="st1" d="M51.5,52.5c0.7,2.1,1.5,3.2,2.2,4c0.6,0.7,2.4,0.2,4.4,0c1.9-0.2,10.6-1.2,12.9-1.4c2.3-0.2,3.7-0.3,4.5,1.3
			s-1,5.3-1,5.3H53c0,0-2.7-0.7-5.6,2.6c1.5,1.7,1.7,1.8,1.7,1.8s1.6-1.3,1.8-1.4c0.3-0.2,0.5-0.9,1.6,0.2s12.2,11.8,12.2,11.8
			s5.8,3.5,7.9-1.9c2.3-5.8,5.9-16,5.9-16.9s0-5.1-5.2-5.2c-4.8,0.5-15.9,1.7-15.9,1.7s-1.8,0.5-2.2-0.6c-0.5-1.1-0.8-1.9-0.8-1.9
			S52.5,50.4,51.5,52.5z"/>
		<path class="st0" d="M46.8,72c0-1.1,0.9-1.9,1.9-1.9c1.1,0,1.9,0.9,1.9,1.9c0,1.1-0.9,1.9-1.9,1.9C47.5,73.9,46.8,73.1,46.8,72"/>
		<path class="st2" d="M46.8,72c0-1.1,0.9-1.9,1.9-1.9c1.1,0,1.9,0.9,1.9,1.9c0,1.1-0.9,1.9-1.9,1.9C47.5,73.9,46.8,73.1,46.8,72z"
			/>
		<path class="st0" d="M46.8,80.7c0-1.1,0.9-1.9,1.9-1.9c1.1,0,1.9,0.9,1.9,1.9c0,1.1-0.9,1.9-1.9,1.9
			C47.5,82.6,46.8,81.7,46.8,80.7"/>
		<path class="st2" d="M46.8,80.7c0-1.1,0.9-1.9,1.9-1.9c1.1,0,1.9,0.9,1.9,1.9c0,1.1-0.9,1.9-1.9,1.9
			C47.5,82.6,46.8,81.7,46.8,80.7z"/>
		<path class="st0" d="M43.8,85c0,0-3.1-3.7-5.8-4.9c-1.4-0.2-1.3-0.1-1.3-0.1s-1.7,0-1.1,1.9c0.5,1.2,1.3,1.2,2.8,1
			c1.6,0.1,3.6,0.9,5.1,2.3C44,85,43.8,85,43.8,85"/>
		<path class="st3" d="M43.8,85c0,0-3.1-3.7-5.8-4.9c-1.4-0.2-1.3-0.1-1.3-0.1s-1.7,0-1.1,1.9c0.5,1.2,1.3,1.2,2.8,1
			c1.6,0.1,3.6,0.9,5.1,2.3C44,85,43.8,85,43.8,85z"/>
		<path class="st0" d="M43.6,88.5c0,0-6.9-3.5-9.8-4.2c-2.7-0.6-4.9-0.4-5.2,2.1c-0.2,1.4,1.1,2.8,3.2,1.7c0.9-0.6,1.8-1.8,3.9-1.4
			c2.1,0.4,4.2,0.6,7.6,2.1C43.5,88.7,43.6,88.5,43.6,88.5"/>
		<path class="st4" d="M43.6,88.5c0,0-6.9-3.5-9.8-4.2c-2.7-0.6-4.9-0.4-5.2,2.1c-0.2,1.4,1.1,2.8,3.2,1.7c0.9-0.6,1.8-1.8,3.9-1.4
			c2.1,0.4,4.2,0.6,7.6,2.1C43.5,88.7,43.6,88.5,43.6,88.5z"/>
		<path class="st0" d="M53.6,85c0,0,3.1-3.7,5.8-4.9c1.4-0.2,1.3-0.1,1.3-0.1s1.7,0,1.2,1.9c-0.4,1.2-1.3,1.2-2.8,1
			c-1.6,0.1-3.6,0.9-5.1,2.3C53.5,85,53.6,85,53.6,85"/>
		<path class="st3" d="M53.6,85c0,0,3.1-3.7,5.8-4.9c1.4-0.2,1.3-0.1,1.3-0.1s1.7,0,1.2,1.9c-0.4,1.2-1.3,1.2-2.8,1
			c-1.6,0.1-3.6,0.9-5.1,2.3C53.5,85,53.6,85,53.6,85z"/>
		<path class="st0" d="M53.8,88.5c0,0,6.8-3.5,9.8-4.2c2.7-0.6,4.9-0.4,5.3,2.1c0.2,1.4-1.1,2.8-3.2,1.7c-0.9-0.6-1.9-1.8-3.9-1.4
			c-2.1,0.4-4.2,0.6-7.6,2.1C54,88.7,53.8,88.5,53.8,88.5"/>
		<path class="st4" d="M53.8,88.5c0,0,6.8-3.5,9.8-4.2c2.7-0.6,4.9-0.4,5.3,2.1c0.2,1.4-1.1,2.8-3.2,1.7c-0.9-0.6-1.9-1.8-3.9-1.4
			c-2.1,0.4-4.2,0.6-7.6,2.1C54,88.7,53.8,88.5,53.8,88.5z"/>
	</g>
	<path class="st5" d="M18.8,41.5l-0.2,20.1c-1.6,39.4,32.1,56.3,32.1,56.3h0.9c0,0,33.7-16.8,32.1-56.3l-0.2-20.1H28.9L18.8,41.5z"
		/>
	<line class="st6" x1="27.2" y1="95.1" x2="75.1" y2="95.1"/>
</g>
<g>
	<path class="st0" d="M26.5,122.5h-3.7v-2.1h9.9v2.1H29v13.6h-2.5V122.5z"/>
	<path class="st0" d="M34.5,124.2l2,8.9l0,0l1.9-8.9h2.5l-3.3,12.3c-0.9,3.2-1.7,3.7-4.1,3.6c-0.3,0-0.6,0-0.9-0.1v-1.9
		c0.3,0,0.5,0.1,0.8,0.1c0.8,0,1.3-0.2,1.6-0.9l0.3-1l-3.4-12.1C31.9,124.2,34.5,124.2,34.5,124.2z"/>
	<path class="st0" d="M42.8,124.2H45v1.5l0,0c0.5-1.1,1.4-1.8,2.7-1.8c2.7,0,3.8,2.3,3.8,6.4c0,5-2,6.1-3.7,6.1
		c-1.3,0-2.2-0.6-2.7-1.7l0,0v5.3h-2.4v-15.8H42.8z M47.1,134.5c1.4,0,2-1,2-4.3c0-2.7-0.4-4.4-2-4.4s-2,1.7-2,4.2
		C45.1,132.9,45.4,134.5,47.1,134.5z"/>
	<path class="st0" d="M56,130.5v0.7c0,1.6,0.2,3.6,2,3.6c1.7,0,1.9-1.9,1.9-2.6h2.2c0,2.6-1.6,4.3-4.2,4.3c-1.9,0-4.3-0.6-4.3-6.1
		c0-3.1,0.7-6.4,4.4-6.4c3.3,0,4.2,2,4.2,5.3v1.3L56,130.5L56,130.5z M59.8,128.8v-0.6c0-1.5-0.5-2.6-1.8-2.6c-1.5,0-2,1.5-2,3v0.2
		H59.8z"/>
	<path class="st0" d="M76.6,124.3c0-0.9-0.4-2-1.7-2c-2.4,0-2.5,3.1-2.5,5.4h0.1c0.6-1.1,1.7-1.7,3-1.7c2.1,0,3.9,1.5,3.9,4.6
		c0,3.6-1.5,5.7-4.8,5.7c-3.9,0-4.7-3-4.7-7.5c0-4.7,0.9-8.4,5-8.4c2.7,0,4.2,1.2,4.2,3.8L76.6,124.3L76.6,124.3z M74.8,134.6
		c1.5,0,2.1-1.5,2.1-3.3c0-2.2-0.6-3.4-2.1-3.4c-1.8,0-2.2,1.6-2.2,3.5C72.7,133.2,73.3,134.6,74.8,134.6z"/>
</g>
<g>
	<path class="st0" d="M12.3,20.3h8.5v2.1h-6v4.4h5.6v2.1h-5.6v5H21V36h-8.7C12.3,36,12.3,20.3,12.3,20.3z"/>
	<path class="st0" d="M23.5,20.3h3.1L31.1,32l0,0V20.3h2.4V36h-3.1l-4.6-12l0,0v12h-2.4L23.5,20.3L23.5,20.3z"/>
	<path class="st0" d="M39.9,36V24.7h-3.2V23h0.2c1.5,0,3.2-0.4,3.7-2.3v-0.3h1.8V36H39.9z"/>
	<path class="st0" d="M49.5,31.7c0,1.4,0.4,2.9,2.1,2.9c1.6,0,2.2-1.3,2.2-2.8c0-1.9-0.6-2.9-2.5-2.9h-1v-1.8h0.9
		c1.7,0,2.2-1.1,2.2-2.7c0-1.1-0.5-2.2-1.8-2.2c-1.5,0-2,1.3-2,2.7h-2.4c0-2.9,1.5-4.5,4.5-4.5c1.9,0,4.2,0.9,4.2,4
		c0,1.6-0.9,3.2-2.5,3.4v0.1c1.6,0.1,2.8,1.4,2.8,3.6c0,3.1-1.5,4.8-4.8,4.8c-2.8,0-4.4-1.4-4.4-4.6C47,31.7,49.5,31.7,49.5,31.7z"
		/>
	<path class="st0" d="M62.9,20.4c3,0,4.7,1.9,4.7,7.9c0,6.1-1.7,7.9-4.7,7.9s-4.7-1.9-4.7-7.9S59.9,20.4,62.9,20.4z M62.9,34.5
		c1.7,0,2.2-1.7,2.2-6.2s-0.4-6.2-2.2-6.2c-1.7,0-2.2,1.6-2.2,6.2S61.1,34.5,62.9,34.5z"/>
	<path class="st0" d="M71.7,31.7c0,1.4,0.4,2.9,2.1,2.9c1.6,0,2.2-1.3,2.2-2.8c0-1.9-0.6-2.9-2.5-2.9h-1v-1.8h0.9
		c1.7,0,2.2-1.1,2.2-2.7c0-1.1-0.5-2.2-1.8-2.2c-1.5,0-2,1.3-2,2.7h-2.4c0-2.9,1.5-4.5,4.5-4.5c1.9,0,4.2,0.9,4.2,4
		c0,1.6-0.9,3.2-2.5,3.4v0.1c1.6,0.1,2.8,1.4,2.8,3.6c0,3.1-1.5,4.8-4.8,4.8c-2.8,0-4.4-1.4-4.4-4.6C69.1,31.7,71.7,31.7,71.7,31.7z
		"/>
	<path class="st0" d="M80.2,30.3l5.4-9.9h2.6v10.1h1.7v2h-1.7V36h-2.4v-3.5h-5.6V30.3z M85.8,24.1L85.8,24.1l-3.5,6.4h3.5V24.1z"/>
</g>
</svg>
