<?xml version="1.0" encoding="utf-8"?>
<!-- Generator: Adobe Illustrator 22.1.0, SVG Export Plug-In . SVG Version: 6.00 Build 0)  -->
<svg version="1.1" id="Layer_1" xmlns="http://www.w3.org/2000/svg" xmlns:xlink="http://www.w3.org/1999/xlink" x="0px" y="0px"
	 viewBox="0 0 102.2 142" style="enable-background:new 0 0 102.2 142;" xml:space="preserve">
<style type="text/css">
	.st0{fill:none;stroke:#272525;stroke-width:3.6222;}
	.st1{fill:none;stroke:#272525;stroke-width:4.8296;}
	.st2{fill:none;stroke:#272525;stroke-width:1.0311;stroke-miterlimit:3.864;}
	.st3{fill:#272525;}
</style>
<g>
	<path class="st0" d="M18.8,44.5l-0.2,17.1c-1.6,39.4,32.1,56.3,32.1,56.3h0.9c0,0,33.7-16.8,32.1-56.3l-0.2-20.1H18.8V44.5z"/>
	<line class="st1" x1="27" y1="95.1" x2="74.8" y2="95.1"/>
	<path class="st2" d="M25.9,57.6c0-1,0.8-1.8,1.8-1.8s1.8,0.8,1.8,1.8s-0.8,1.8-1.8,1.8C26.8,59.4,25.9,58.6,25.9,57.6z M25.5,51.2
		c0-1,0.8-1.8,1.8-1.8s1.8,0.8,1.8,1.8S28.3,53,27.3,53S25.5,52.2,25.5,51.2z M30.8,50.3c0-1,0.8-1.8,1.8-1.8s1.8,0.8,1.8,1.8
		s-0.8,1.8-1.8,1.8C31.6,52.1,30.8,51.3,30.8,50.3z M30,55.4c0-1,0.8-1.8,1.8-1.8s1.8,0.8,1.8,1.8s-0.8,1.8-1.8,1.8S30,56.4,30,55.4
		z M34.6,55.3c0-1,0.8-1.8,1.8-1.8s1.8,0.8,1.8,1.8s-0.8,1.8-1.8,1.8C35.5,57.1,34.6,56.3,34.6,55.3z M38.6,51.2
		c0-1,0.8-1.8,1.8-1.8s1.8,0.8,1.8,1.8S41.4,53,40.4,53C39.5,53,38.6,52.2,38.6,51.2z M43.3,52.4c0-1,0.8-1.8,1.8-1.8
		s1.8,0.8,1.8,1.8s-0.8,1.8-1.8,1.8S43.3,53.4,43.3,52.4z M46.3,48.8c0-1,0.8-1.8,1.8-1.8s1.8,0.8,1.8,1.8s-0.8,1.8-1.8,1.8
		S46.3,49.8,46.3,48.8z M50.2,52.5c0-1,0.8-1.8,1.8-1.8s1.8,0.8,1.8,1.8S53,54.3,52,54.3S50.2,53.5,50.2,52.5z M57,48.4
		c0-1,0.8-1.8,1.8-1.8s1.8,0.8,1.8,1.8s-0.8,1.8-1.8,1.8S57,49.4,57,48.4z M59.8,52.1c0-1,0.8-1.8,1.8-1.8s1.8,0.8,1.8,1.8
		s-0.8,1.8-1.8,1.8C60.6,53.9,59.8,53.1,59.8,52.1z M60.2,56.2c0-1,0.8-1.8,1.8-1.8s1.8,0.8,1.8,1.8S63,58,62,58
		S60.2,57.2,60.2,56.2z M69.2,51.4c0-1,0.8-1.8,1.8-1.8s1.8,0.8,1.8,1.8s-0.8,1.8-1.8,1.8S69.2,52.4,69.2,51.4z M66.5,54.6
		c0-1,0.8-1.8,1.8-1.8s1.8,0.8,1.8,1.8s-0.8,1.8-1.8,1.8C67.2,56.5,66.5,55.6,66.5,54.6z M71,56.8c0-1,0.8-1.8,1.8-1.8
		s1.8,0.8,1.8,1.8s-0.8,1.8-1.8,1.8C71.8,58.6,71,57.8,71,56.8z M74,52.8c0-1,0.8-1.8,1.8-1.8s1.8,0.8,1.8,1.8s-0.8,1.8-1.8,1.8
		C74.8,54.6,74,53.8,74,52.8z M67.7,63.7c0-1,0.8-1.8,1.8-1.8s1.8,0.8,1.8,1.8c0,1-0.8,1.8-1.8,1.8S67.7,64.7,67.7,63.7z M72.2,61.3
		c0-1,0.8-1.8,1.8-1.8s1.8,0.8,1.8,1.8S75,63.1,74,63.1C73.1,63.1,72.2,62.3,72.2,61.3z M63.5,66.2c0-1,0.8-1.8,1.8-1.8
		s1.8,0.8,1.8,1.8S66.3,68,65.3,68C64.4,68,63.5,67.2,63.5,66.2z M63,61.7c0-1,0.8-1.8,1.8-1.8c1,0,1.8,0.8,1.8,1.8
		s-0.8,1.8-1.8,1.8C63.8,63.5,63,62.7,63,61.7z M57.8,60.5c0-1,0.8-1.8,1.8-1.8s1.8,0.8,1.8,1.8s-0.8,1.8-1.8,1.8
		S57.8,61.5,57.8,60.5z M53.3,57.3c0-1,0.8-1.8,1.8-1.8s1.8,0.8,1.8,1.8s-0.8,1.8-1.8,1.8S53.3,58.3,53.3,57.3z M52.8,62
		c0-1,0.8-1.8,1.8-1.8s1.8,0.8,1.8,1.8s-0.8,1.8-1.8,1.8S52.8,63,52.8,62z M45.3,59.8c0-1,0.8-1.8,1.8-1.8s1.8,0.8,1.8,1.8
		s-0.8,1.8-1.8,1.8C46.2,61.6,45.3,60.8,45.3,59.8z M40.5,56.5c0-1,0.8-1.8,1.8-1.8s1.8,0.8,1.8,1.8s-0.8,1.8-1.8,1.8
		S40.5,57.5,40.5,56.5z M24.1,62.1c0-1,0.8-1.8,1.8-1.8s1.8,0.8,1.8,1.8s-0.8,1.8-1.8,1.8C24.9,63.9,24.1,63.1,24.1,62.1z
		 M25.1,67.4c0-1,0.8-1.8,1.8-1.8s1.8,0.8,1.8,1.8s-0.8,1.8-1.8,1.8C25.9,69.2,25.1,68.4,25.1,67.4z M31.6,61.5c0-1,0.8-1.8,1.8-1.8
		s1.8,0.8,1.8,1.8s-0.8,1.8-1.8,1.8S31.6,62.5,31.6,61.5z M37,62c0-1,0.8-1.8,1.8-1.8s1.8,0.8,1.8,1.8s-0.8,1.8-1.8,1.8S37,63,37,62
		z M40.1,67.1c0-1,0.8-1.8,1.8-1.8s1.8,0.8,1.8,1.8s-0.8,1.8-1.8,1.8C41,68.9,40.1,68.1,40.1,67.1z M39.5,72c0-1,0.8-1.8,1.8-1.8
		s1.8,0.8,1.8,1.8s-0.8,1.8-1.8,1.8C40.3,73.9,39.5,73,39.5,72z M35.6,70.7c0-1,0.8-1.8,1.8-1.8s1.8,0.8,1.8,1.8s-0.8,1.8-1.8,1.8
		C36.5,72.5,35.6,71.7,35.6,70.7z M30.4,71.8c0-1,0.8-1.8,1.8-1.8c1,0,1.8,0.8,1.8,1.8s-0.8,1.8-1.8,1.8
		C31.2,73.6,30.4,72.8,30.4,71.8z M25.8,73.4c0-1,0.8-1.8,1.8-1.8s1.8,0.8,1.8,1.8s-0.8,1.8-1.8,1.8C26.6,75.2,25.8,74.4,25.8,73.4z
		 M23.2,77.7c0-1,0.8-1.8,1.8-1.8s1.8,0.8,1.8,1.8S26,79.5,25,79.5S23.2,78.7,23.2,77.7z M24.8,82.9c0-1,0.8-1.8,1.8-1.8
		s1.8,0.8,1.8,1.8s-0.8,1.8-1.8,1.8C25.6,84.7,24.8,83.9,24.8,82.9z M30.6,81.2c0-1,0.8-1.8,1.8-1.8c1,0,1.8,0.8,1.8,1.8
		S33.5,83,32.5,83C31.4,83,30.6,82.2,30.6,81.2z M30.9,85.2c0-1,0.8-1.8,1.8-1.8c1,0,1.8,0.8,1.8,1.8S33.8,87,32.8,87
		S30.9,86.2,30.9,85.2z M35.8,79.1c0-1,0.8-1.8,1.8-1.8s1.8,0.8,1.8,1.8s-0.8,1.8-1.8,1.8C36.6,80.9,35.8,80.1,35.8,79.1z M40.3,81
		c0-1,0.8-1.8,1.8-1.8s1.8,0.8,1.8,1.8s-0.8,1.8-1.8,1.8S40.3,82,40.3,81z M36.3,83.5c0-1,0.8-1.8,1.8-1.8s1.8,0.8,1.8,1.8
		s-0.8,1.8-1.8,1.8S36.3,84.5,36.3,83.5z M46,83.4c0-1,0.8-1.8,1.8-1.8s1.8,0.8,1.8,1.8s-0.8,1.8-1.8,1.8C46.8,85.2,46,84.4,46,83.4
		z M46.2,79.4c0-1,0.8-1.8,1.8-1.8s1.8,0.8,1.8,1.8S49,81.2,48,81.2C47,81.2,46.2,80.4,46.2,79.4z M51.1,76.3c0-1,0.8-1.8,1.8-1.8
		s1.8,0.8,1.8,1.8s-0.8,1.8-1.8,1.8S51.1,77.3,51.1,76.3z M47.8,71.8c0-1,0.8-1.8,1.8-1.8s1.8,0.8,1.8,1.8s-0.8,1.8-1.8,1.8
		C48.5,73.6,47.8,72.8,47.8,71.8z M51.8,69.5c0-1,0.8-1.8,1.8-1.8s1.8,0.8,1.8,1.8s-0.8,1.8-1.8,1.8S51.8,70.5,51.8,69.5z
		 M57.3,65.5c0-1,0.8-1.8,1.8-1.8s1.8,0.8,1.8,1.8s-0.8,1.8-1.8,1.8S57.3,66.5,57.3,65.5z M59.1,70c0-1,0.8-1.8,1.8-1.8
		s1.8,0.8,1.8,1.8s-0.8,1.8-1.8,1.8C60,71.8,59.1,71,59.1,70z M62.1,73.6c0-1,0.8-1.8,1.8-1.8s1.8,0.8,1.8,1.8s-0.8,1.8-1.8,1.8
		C63,75.4,62.1,74.6,62.1,73.6z M67.1,73.3c0-1,0.8-1.8,1.8-1.8s1.8,0.8,1.8,1.8s-0.8,1.8-1.8,1.8C67.9,75.1,67.1,74.3,67.1,73.3z
		 M70.1,68.3c0-1,0.8-1.8,1.8-1.8s1.8,0.8,1.8,1.8s-0.8,1.8-1.8,1.8C70.9,70.1,70.1,69.3,70.1,68.3z M75.5,69.3c0-1,0.8-1.8,1.8-1.8
		s1.8,0.8,1.8,1.8s-0.8,1.8-1.8,1.8C76.2,71.1,75.5,70.2,75.5,69.3z M73.4,74.7c0-1,0.8-1.8,1.8-1.8s1.8,0.8,1.8,1.8
		s-0.8,1.8-1.8,1.8C74.2,76.5,73.4,75.7,73.4,74.7z M72.9,80.1c0-1,0.8-1.8,1.8-1.8s1.8,0.8,1.8,1.8s-0.8,1.8-1.8,1.8
		C73.7,81.9,72.9,81.1,72.9,80.1z M67,77.8c0-1,0.8-1.8,1.8-1.8s1.8,0.8,1.8,1.8s-0.8,1.8-1.8,1.8C67.8,79.6,67,78.8,67,77.8z
		 M58.8,80.8c0-1,0.8-1.8,1.8-1.8s1.8,0.8,1.8,1.8s-0.8,1.8-1.8,1.8C59.6,82.6,58.8,81.8,58.8,80.8z M55.1,83.7c0-1,0.8-1.8,1.8-1.8
		s1.8,0.8,1.8,1.8s-0.8,1.8-1.8,1.8C56,85.5,55.1,84.7,55.1,83.7z M64.2,83.2c0-1,0.8-1.8,1.8-1.8s1.8,0.8,1.8,1.8S67,85,66,85
		S64.2,84.2,64.2,83.2z M68.6,81.9c0-1,0.8-1.8,1.8-1.8s1.8,0.8,1.8,1.8s-0.8,1.8-1.8,1.8C69.4,83.7,68.6,82.8,68.6,81.9z"/>
</g>
<g>
	<path class="st3" d="M26.5,122.5h-3.7v-2.1h9.9v2.1H29v13.6h-2.5V122.5z"/>
	<path class="st3" d="M34.5,124.2l2,8.9l0,0l1.9-8.9h2.5l-3.3,12.3c-0.9,3.2-1.7,3.7-4.1,3.6c-0.3,0-0.6,0-0.9-0.1v-1.9
		c0.3,0,0.5,0.1,0.8,0.1c0.8,0,1.3-0.2,1.6-0.9l0.3-1l-3.4-12.1C31.9,124.2,34.5,124.2,34.5,124.2z"/>
	<path class="st3" d="M42.8,124.2H45v1.5l0,0c0.5-1.1,1.4-1.8,2.7-1.8c2.7,0,3.8,2.3,3.8,6.4c0,5-2,6.1-3.7,6.1
		c-1.3,0-2.2-0.6-2.7-1.7l0,0v5.3h-2.4v-15.8H42.8z M47.1,134.5c1.4,0,2-1,2-4.3c0-2.7-0.4-4.4-2-4.4s-2,1.7-2,4.2
		C45.1,132.8,45.4,134.5,47.1,134.5z"/>
	<path class="st3" d="M56,130.4v0.7c0,1.6,0.2,3.6,2,3.6c1.7,0,1.9-1.9,1.9-2.6h2.2c0,2.6-1.6,4.3-4.2,4.3c-1.9,0-4.3-0.6-4.3-6.1
		c0-3.1,0.7-6.4,4.4-6.4c3.3,0,4.2,2,4.2,5.3v1.3L56,130.4L56,130.4z M59.8,128.8v-0.6c0-1.5-0.5-2.6-1.8-2.6c-1.5,0-2,1.5-2,3v0.2
		H59.8z"/>
	<path class="st3" d="M70.1,131.9h2.4v0.4c0,1.2,0.6,2.2,2,2.2c1.7,0,2.2-1.7,2.2-3.5s-0.5-3.3-2.1-3.3c-1.1,0-1.8,0.6-2,1.4
		l-2.2-0.1l0.8-8.2h7.5v2h-5.6l-0.5,4.1l0,0c0.7-0.7,1.6-1.2,2.6-1.2c3.3,0,4.1,2.8,4.1,5.1c0,3.1-1.4,5.5-4.8,5.5
		c-2.8,0-4.4-1.4-4.4-4.2V131.9z"/>
</g>
<g>
	<path class="st3" d="M23.6,1.7h8.5v2.1h-6v4.4h5.6v2.1h-5.6v5h6.2v2.1h-8.7V1.7z"/>
	<path class="st3" d="M34.7,1.7h3.1l4.6,11.7l0,0V1.7h2.4v15.7h-3.1l-4.6-12l0,0v12h-2.4V1.7z"/>
	<path class="st3" d="M53.6,1.7h2.5v15.7h-2.5V1.7z"/>
	<path class="st3" d="M61.1,12.6V13c0,1.9,0.8,2.9,2.6,2.9c1.6,0,2.4-1.1,2.4-2.3c0-1.7-0.8-2.4-2.2-2.8l-1.8-0.6
		c-2.3-0.9-3.3-2.1-3.3-4.3c0-2.9,1.9-4.4,4.9-4.4c4,0,4.4,2.5,4.4,4.1V6h-2.5V5.6c0-1.4-0.6-2.3-2.2-2.3c-1.1,0-2.1,0.6-2.1,2.3
		c0,1.3,0.7,2,2.4,2.7l1.7,0.6c2.2,0.8,3.2,2,3.2,4.2c0,3.3-2,4.7-5.2,4.7c-3.9,0-4.8-2.6-4.8-4.8v-0.4
		C58.6,12.6,61.1,12.6,61.1,12.6z"/>
	<path class="st3" d="M70.8,9.6c0-5.6,1.6-8.2,5.2-8.2s5.2,2.6,5.2,8.2s-1.6,8.2-5.2,8.2C72.4,17.8,70.8,15.2,70.8,9.6z M78.6,9.5
		c0-5.3-1.2-6.2-2.7-6.2s-2.7,0.9-2.7,6.2c0,5.4,1.2,6.3,2.7,6.3C77.5,15.9,78.6,15,78.6,9.5z"/>
	<path class="st3" d="M19.5,36.5V25.2h-3.2v-1.6h0.2c1.5,0,3.2-0.4,3.7-2.3V21H22v15.6h-2.5V36.5z"/>
	<path class="st3" d="M29.2,32.1c0,1.4,0.4,2.9,2.1,2.9c1.6,0,2.2-1.3,2.2-2.8c0-1.9-0.6-2.9-2.5-2.9h-1v-1.8h0.9
		c1.7,0,2.2-1.1,2.2-2.7c0-1.1-0.5-2.2-1.8-2.2c-1.5,0-2,1.3-2,2.7h-2.4c0-2.9,1.5-4.5,4.5-4.5c1.9,0,4.2,0.9,4.2,4
		c0,1.6-0.9,3.2-2.5,3.4v0.1c1.6,0.1,2.8,1.4,2.8,3.6c0,3.1-1.5,4.8-4.8,4.8c-2.8,0-4.4-1.4-4.4-4.6C26.7,32.1,29.2,32.1,29.2,32.1z
		"/>
	<path class="st3" d="M40.6,33c0,0.9,0.4,2,1.7,2c2.4,0,2.5-3.1,2.5-5.4h-0.1c-0.6,1.1-1.7,1.7-3,1.7c-2.1,0-3.9-1.5-3.9-4.6
		c0-3.6,1.5-5.7,4.8-5.7c3.9,0,4.7,3,4.7,7.5c0,4.7-0.9,8.4-5,8.4c-2.7,0-4.2-1.2-4.2-3.8h2.5V33z M42.3,22.6
		c-1.5,0-2.1,1.5-2.1,3.3c0,2.2,0.6,3.4,2.1,3.4c1.8,0,2.2-1.6,2.2-3.5C44.5,24.1,43.8,22.6,42.3,22.6z"/>
	<path class="st3" d="M48.9,32.1c0-2.3,1.1-3.6,2.7-3.9l0,0c-1.3-0.5-2.2-1.5-2.2-3.4c0-2.4,1.6-3.9,4.2-3.9c2.6,0,4.2,1.5,4.2,3.9
		c0,1.9-0.8,2.9-2.2,3.4l0,0c1.5,0.3,2.7,1.6,2.7,3.9c0,3.1-1.5,4.7-4.7,4.7S48.9,35.2,48.9,32.1z M53.6,35c1.8,0,2.2-1.3,2.2-2.9
		c0-1.7-0.4-2.9-2.2-2.9s-2.2,1.3-2.2,2.9C51.4,33.7,51.8,35,53.6,35z M53.6,27.4c1.6,0,2-1.1,2-2.4c0-1.2-0.4-2.3-2-2.3
		s-2,1.1-2,2.3C51.6,26.2,52,27.4,53.6,27.4z"/>
	<path class="st3" d="M69.3,36.5h-9.1c0-6.8,6.5-6.6,6.5-11.5c0-1.3-0.6-2.4-1.9-2.4c-1.9,0-2.2,1.7-2.2,3.3h-2.4c0-3.1,1.3-5,4.6-5
		c3.2,0,4.4,1.9,4.4,4.2c0,5.2-5.1,5.5-6.2,9.3h6.3C69.3,34.4,69.3,36.5,69.3,36.5z"/>
	<path class="st3" d="M71.5,29h5.8v2.2h-5.8V29z"/>
	<path class="st3" d="M83.4,36.5V25.2h-3.2v-1.6h0.2c1.5,0,3.2-0.4,3.7-2.3V21h1.8v15.6h-2.5V36.5z"/>
</g>
</svg>
