<?xml version="1.0" encoding="utf-8"?>
<!-- Generator: Adobe Illustrator 22.1.0, SVG Export Plug-In . SVG Version: 6.00 Build 0)  -->
<svg version="1.1" id="Layer_1" xmlns="http://www.w3.org/2000/svg" xmlns:xlink="http://www.w3.org/1999/xlink" x="0px" y="0px"
	 viewBox="0 0 102.2 142" style="enable-background:new 0 0 102.2 142;" xml:space="preserve">
<style type="text/css">
	.st0{fill:none;stroke:#272525;stroke-width:3.6222;}
	.st1{fill:none;stroke:#272525;stroke-width:4.8296;}
	.st2{fill:none;stroke:#272525;stroke-width:2.4148;}
	.st3{fill:none;stroke:#272525;stroke-width:2.4148;stroke-dasharray:4.6002,2.3001;}
	.st4{fill:none;stroke:#272525;stroke-width:2.4148;stroke-dasharray:4.2281,2.114;}
	.st5{fill:none;stroke:#272525;stroke-width:2.5134;}
	.st6{fill:none;stroke:#272525;stroke-width:2.5134;stroke-dasharray:5.4661,2.7331;}
	.st7{fill:none;stroke:#272525;stroke-width:2.5134;stroke-dasharray:5.2531,2.6266;}
	.st8{fill:#272525;}
</style>
<g>
	<path class="st0" d="M18.7,43.1l-0.2,18.5c-1.6,39.4,32.1,56.3,32.1,56.3h0.9c0,0,33.7-16.8,32.1-56.3l-0.2-20.1H18.7V43.1z"/>
	<line class="st1" x1="27" y1="95.1" x2="74.7" y2="95.1"/>
	<g>
		<g>
			<line class="st2" x1="83.7" y1="50.5" x2="82.2" y2="52.4"/>
			<line class="st3" x1="80.9" y1="54.3" x2="52.9" y2="92.2"/>
			<line class="st2" x1="52.3" y1="93.2" x2="50.8" y2="95.1"/>
		</g>
	</g>
	<g>
		<g>
			<line class="st2" x1="27" y1="84.9" x2="29.2" y2="85.8"/>
			<line class="st4" x1="31.1" y1="86.7" x2="47.6" y2="93.7"/>
			<line class="st2" x1="48.6" y1="94.2" x2="50.8" y2="95.1"/>
		</g>
	</g>
	<g>
		<g>
			<line class="st5" x1="27" y1="63.9" x2="28.6" y2="65.7"/>
			<line class="st6" x1="30.5" y1="67.7" x2="46.5" y2="84.5"/>
			<line class="st5" x1="47.4" y1="85.5" x2="49.1" y2="87.3"/>
		</g>
	</g>
	<g>
		<g>
			<line class="st5" x1="74.7" y1="48" x2="73.4" y2="50.1"/>
			<line class="st7" x1="71.9" y1="52.3" x2="51.1" y2="84.2"/>
			<line class="st5" x1="50.4" y1="85.3" x2="49.1" y2="87.3"/>
		</g>
	</g>
</g>
<g>
	<path class="st8" d="M12.4,20.3h8.5v2.1h-6v4.4h5.6v2.1h-5.6v5h6.2V36h-8.7C12.4,36,12.4,20.3,12.4,20.3z"/>
	<path class="st8" d="M23.6,20.3h3.1L31.2,32l0,0V20.3h2.4V36h-3.1l-4.6-12l0,0v12h-2.4L23.6,20.3L23.6,20.3z"/>
	<path class="st8" d="M40,36V24.7h-3.2V23H37c1.5,0,3.2-0.4,3.7-2.3v-0.3h1.8V36H40z"/>
	<path class="st8" d="M47,30.3l5.4-9.9H55v10.1h1.7v2H55V36h-2.4v-3.5H47V30.3z M52.6,24L52.6,24l-3.5,6.4h3.5V24z"/>
	<path class="st8" d="M64.9,24.2c0-0.9-0.4-2-1.7-2c-2.4,0-2.5,3.1-2.5,5.4h0.1c0.6-1.1,1.7-1.7,3-1.7c2.1,0,3.9,1.5,3.9,4.6
		c0,3.6-1.5,5.7-4.8,5.7c-3.9,0-4.7-3-4.7-7.5c0-4.7,0.9-8.4,5-8.4c2.7,0,4.2,1.2,4.2,3.8h-2.5V24.2z M63.1,34.5
		c1.5,0,2.1-1.5,2.1-3.3c0-2.2-0.6-3.4-2.1-3.4c-1.8,0-2.2,1.6-2.2,3.5C60.9,33.1,61.6,34.5,63.1,34.5z"/>
	<path class="st8" d="M74.1,20.4c3,0,4.7,1.9,4.7,7.9c0,6.1-1.7,7.9-4.7,7.9s-4.7-1.9-4.7-7.9C69.4,22.3,71.1,20.4,74.1,20.4z
		 M74.1,34.5c1.7,0,2.2-1.7,2.2-6.2s-0.4-6.2-2.2-6.2c-1.7,0-2.2,1.6-2.2,6.2S72.3,34.5,74.1,34.5z"/>
	<path class="st8" d="M80.6,31.8H83v0.4c0,1.2,0.6,2.2,2,2.2c1.7,0,2.2-1.7,2.2-3.5s-0.5-3.3-2.1-3.3c-1.1,0-1.8,0.6-2,1.4l-2.2-0.1
		l0.8-8.2h7.5v2h-5.6l-0.5,4.1l0,0c0.7-0.7,1.6-1.2,2.6-1.2c3.3,0,4.1,2.8,4.1,5.1c0,3.1-1.4,5.5-4.8,5.5c-2.8,0-4.4-1.4-4.4-4.2
		V31.8z"/>
</g>
<g>
	<path class="st8" d="M26.6,122.5h-3.7v-2.1h9.9v2.1h-3.7v13.6h-2.5V122.5z"/>
	<path class="st8" d="M34.6,124.2l2,8.9l0,0l1.9-8.9H41l-3.3,12.3c-0.9,3.2-1.7,3.7-4.1,3.6c-0.3,0-0.6,0-0.9-0.1v-1.9
		c0.3,0,0.5,0.1,0.8,0.1c0.8,0,1.3-0.2,1.6-0.9l0.3-1L32,124.2C32,124.2,34.6,124.2,34.6,124.2z"/>
	<path class="st8" d="M42.9,124.2h2.2v1.5l0,0c0.5-1.1,1.4-1.8,2.7-1.8c2.7,0,3.8,2.3,3.8,6.4c0,5-2,6.1-3.7,6.1
		c-1.3,0-2.2-0.6-2.7-1.7l0,0v5.3h-2.4v-15.8H42.9z M47.2,134.5c1.4,0,2-1,2-4.3c0-2.7-0.4-4.4-2-4.4s-2,1.7-2,4.2
		C45.2,132.8,45.5,134.5,47.2,134.5z"/>
	<path class="st8" d="M56.1,130.4v0.7c0,1.6,0.2,3.6,2,3.6c1.7,0,1.9-1.9,1.9-2.6h2.2c0,2.6-1.6,4.3-4.2,4.3c-1.9,0-4.3-0.6-4.3-6.1
		c0-3.1,0.7-6.4,4.4-6.4c3.3,0,4.2,2,4.2,5.3v1.3L56.1,130.4L56.1,130.4z M59.9,128.8v-0.6c0-1.5-0.5-2.6-1.8-2.6c-1.5,0-2,1.5-2,3
		v0.2H59.9z"/>
	<path class="st8" d="M72.5,131.7c0,1.4,0.4,2.9,2.1,2.9c1.6,0,2.2-1.3,2.2-2.8c0-1.9-0.6-2.9-2.5-2.9h-1v-1.8h0.9
		c1.7,0,2.2-1.1,2.2-2.7c0-1.1-0.5-2.2-1.8-2.2c-1.5,0-2,1.3-2,2.7h-2.3c0-2.9,1.5-4.5,4.5-4.5c1.9,0,4.2,0.9,4.2,4
		c0,1.6-0.9,3.2-2.5,3.4v0.1c1.6,0.1,2.8,1.4,2.8,3.6c0,3.1-1.5,4.8-4.8,4.8c-2.8,0-4.4-1.4-4.4-4.6H72.5z"/>
</g>
</svg>
