<?xml version="1.0" encoding="utf-8"?>
<!-- Generator: Adobe Illustrator 24.2.3, SVG Export Plug-In . SVG Version: 6.00 Build 0)  -->
<svg version="1.1" id="Capa_1" xmlns="http://www.w3.org/2000/svg" xmlns:xlink="http://www.w3.org/1999/xlink" x="0px" y="0px"
	 viewBox="0 0 37.2 37.2" style="enable-background:new 0 0 37.2 37.2;" xml:space="preserve">
<g>
	<path d="M12.6,3.1l3,0l3,0l7.5,0l6.2,0c0,0,0.1,0,0.1,0c0,0,0,0.1,0,0.1c0,1.2,0,2.5,0,3.7c0,3.9,0,7.9,0,11.8
		c0,0.6-0.2,1.3-0.3,1.9c-0.3,1.1-0.8,2.2-1.5,3.4c-1,1.6-2.2,3-3.7,4.3c-2.4,2.2-5.2,4.1-8.4,5.8c0,0,0,0,0,0c-3.6-2-6.3-4-8.6-6.1
		c-1.3-1.2-2.3-2.4-3.1-3.7c-1.1-1.8-1.8-3.4-2-5.1c0-0.2,0-0.3,0-0.5c0-4.4,0-8.7,0-13.1l0-2.6c0,0,0,0,0,0c0,0,0,0,0,0L12.6,3.1
		 M12.6,2.6c-2.6,0-5.2,0-7.8,0c-0.4,0-0.5,0.1-0.5,0.5c0,5.2,0,10.4,0,15.7c0,0.2,0,0.4,0,0.5c0.2,2,1,3.7,2.1,5.3
		c0.9,1.4,2,2.6,3.2,3.7c2.6,2.5,5.6,4.5,8.7,6.2c0,0,0.1,0,0.1,0c0.1,0,0.2,0,0.3-0.1c3-1.7,5.9-3.6,8.5-5.9
		c1.5-1.3,2.7-2.8,3.7-4.4c0.7-1.1,1.2-2.3,1.6-3.5c0.2-0.6,0.3-1.3,0.3-2c0-5.2,0-10.4,0-15.5c0-0.6,0-0.6-0.6-0.6
		c-4.6,0-9.1,0-13.7,0C16.6,2.6,14.6,2.6,12.6,2.6L12.6,2.6z"/>
	<g id="abiJ1K.tif">
		<g>
			<path d="M24.8,7.6c0,0.1,0.1,0.2,0.1,0.3C25,8,25,8,25.1,8c0.4,0.1,0.7,0.2,0.9,0.4c0.3-0.2,0.4-0.2,0.5-0.1
				c0.1,0.1,0.1,0.2-0.1,0.4c0.1,0.4,0.3,0.7,0.4,1.1c0.1,0,0.4,0,0.4,0.3c0,0.2-0.1,0.2-0.4,0.2c-0.2,0.4-0.3,0.7-0.5,1.1
				c0.2,0.2,0.2,0.3,0.1,0.4c-0.1,0.1-0.2,0.1-0.4-0.1c-0.3,0.3-0.5,0.5-0.8,0.8c0.2,0.2,0.2,0.3,0.1,0.4c-0.1,0.1-0.2,0.1-0.4-0.1
				c-0.3,0.3-0.5,0.5-0.8,0.8c0.1,0.1,0.3,0.2,0.1,0.4c-0.1,0.1-0.2,0.1-0.4-0.1c-0.3,0.3-0.5,0.5-0.8,0.8c0.2,0.2,0.2,0.3,0.1,0.4
				c-0.1,0.1-0.2,0.1-0.5-0.1c-0.3,0.3-0.5,0.5-0.8,0.8c0.2,0.2,0.2,0.3,0.1,0.4c-0.1,0.1-0.2,0.1-0.5-0.1c-0.3,0.4-0.7,0.7-1,1.1
				c0.2,0.2,0.2,0.3,0,0.5c-1.8,1.7-3.5,3.5-5.3,5.2c-0.2,0.2-0.3,0.2-0.6,0c-0.1,0.1-0.3,0.3-0.4,0.4c-0.5,0.5-1.1,0.5-1.6,0
				c-0.4-0.4-0.7-0.7-1.1-1.1c-0.5-0.5-0.5-1.1,0-1.6c0.1-0.1,0.3-0.3,0.4-0.4c-0.4-0.6-0.6-1.2-0.4-1.8c0.1-0.7,0.5-1.1,1.1-1.5
				c-0.1-0.3-0.3-0.6-0.4-0.8c-0.3-0.6-0.2-1.3,0.2-1.8c0.7-0.9,2.2-0.8,2.8,0.2c0.1,0.1,0.1,0.2,0.2,0.4c0.4-0.3,0.9-0.5,1.4-0.5
				c0.1,0,0.2,0,0.4,0c0.1,0,0.2,0,0.3-0.1c0.4-0.4,0.7-0.8,1.1-1.2c-0.1-0.1-0.2-0.2-0.1-0.4c0.1-0.1,0.2-0.1,0.5,0.1
				c0.3-0.3,0.5-0.5,0.8-0.8c-0.2-0.2-0.2-0.3-0.1-0.4c0.1-0.1,0.2-0.1,0.5,0.1c0.3-0.3,0.5-0.5,0.8-0.8c-0.2-0.2-0.2-0.3-0.1-0.4
				c0.1-0.1,0.2-0.1,0.5,0.1c0.2-0.3,0.5-0.5,0.8-0.8c0-0.1-0.1-0.2-0.1-0.3c0,0,0-0.1,0.1-0.1c0.1-0.1,0.2-0.1,0.4,0.1
				C22.5,9.3,22.8,9,23,8.7c-0.2-0.2-0.2-0.3-0.1-0.4c0.1-0.1,0.2-0.1,0.5,0.1C23.7,8.2,24,8.1,24.4,8c0,0,0.1-0.1,0.1-0.1
				c0-0.1,0-0.2,0.2-0.3C24.7,7.6,24.8,7.6,24.8,7.6z M19.8,17.6C19.8,17.6,19.8,17.6,19.8,17.6c-0.7-0.7-1.3-1.4-2-2
				c-0.6-0.6-1.6-0.7-2.3-0.2c-0.3,0.2-0.6,0.4-0.9,0.7c-0.3,0.2-0.6,0.5-0.9,0.7c0.8,1.5,1.5,3.1,2.3,4.7c0.6-0.6,1.2-1.3,1.8-1.9
				c0,0,0,0,0,0c-0.2-0.2-0.4-0.4-0.6-0.6c-0.3-0.3-0.3-0.7,0-1c0.3-0.3,0.7-0.3,1,0c0.2,0.2,0.4,0.4,0.7,0.7
				C19.1,18.3,19.4,17.9,19.8,17.6z M19.4,16.4C19.4,16.4,19.4,16.3,19.4,16.4c1.1-1.1,2.1-2.1,3.2-3.1c0.9-0.9,1.8-1.7,2.7-2.6
				c0.2-0.2,0.3-0.5,0.2-0.8c-0.2-0.6-0.8-0.8-1.3-0.3c-1.9,1.9-3.9,3.8-5.8,5.7c0,0-0.1,0.1-0.1,0.1C18.6,15.7,19,16,19.4,16.4z
				 M19.9,17c0.1-0.1,0.1-0.1,0.2-0.2c1.1-1.1,2.2-2.2,3.4-3.3c0.8-0.8,1.6-1.6,2.4-2.4c0.5-0.5,0.6-1.1,0.3-1.7
				c-0.3-0.6-0.9-1-1.5-1c-0.4,0-0.8,0.2-1.1,0.5c-1.9,1.9-3.9,3.8-5.8,5.7c0,0-0.1,0.1-0.1,0.1c0.1,0.1,0.2,0.1,0.3,0.2
				c0,0,0.1-0.1,0.1-0.1c1.1-1.1,2.2-2.2,3.3-3.3c0.8-0.8,1.6-1.6,2.5-2.4c0.7-0.7,1.8-0.4,2.1,0.5c0.2,0.5,0,1-0.3,1.3
				c-1.9,1.9-3.8,3.7-5.7,5.6c0,0-0.1,0.1-0.2,0.1C19.8,16.8,19.8,16.9,19.9,17z M15,22.3c-0.8-1.6-1.6-3.2-2.3-4.7c0,0,0,0,0,0
				c-1,0.6-1.1,1.9-0.3,2.7c0.7,0.8,1.5,1.5,2.2,2.3c0,0,0.1,0.1,0.1,0.1C14.8,22.5,14.9,22.4,15,22.3z M14.5,15.5
				c0.3-0.2,0.3-0.2,0.2-0.4c0,0,0-0.1,0-0.1c-0.3-0.6-1-0.9-1.6-0.6c-0.6,0.3-0.8,1-0.5,1.7c1,1.9,1.9,3.9,2.9,5.8
				c0,0,0,0.1,0.1,0.1c0.3-0.2,0.3-0.2,0.1-0.5c-0.4-0.9-0.9-1.7-1.3-2.6c-0.5-1-1-2-1.5-3c-0.2-0.5-0.1-1,0.4-1.2
				c0.4-0.2,0.9,0,1.2,0.4C14.4,15.2,14.4,15.4,14.5,15.5z M12.1,20.8c-0.2,0.2-0.3,0.3-0.5,0.5c-0.2,0.2-0.2,0.5,0,0.7
				c0.4,0.4,0.8,0.8,1.1,1.2c0.2,0.2,0.5,0.2,0.7,0c0.2-0.2,0.3-0.4,0.5-0.5c0,0-0.1-0.1-0.2-0.2c-0.1,0.1-0.3,0.3-0.4,0.4
				c-0.2,0.2-0.3,0.2-0.4,0c-0.3-0.3-0.7-0.7-1-1.1c-0.2-0.2-0.2-0.3,0-0.4c0.1-0.1,0.3-0.3,0.4-0.4C12.3,20.9,12.2,20.9,12.1,20.8z
				 M14.1,15.8c-0.1-0.2-0.2-0.3-0.2-0.5c0,0,0,0,0-0.1c-0.1-0.2-0.3-0.2-0.5-0.2c-0.2,0.1-0.3,0.3-0.2,0.5c0.1,0.2,0.2,0.5,0.3,0.7
				C13.7,16.1,13.9,16,14.1,15.8z M13.4,22.1c-0.3-0.2-0.5-0.5-0.8-0.8c-0.1,0.1-0.2,0.2-0.3,0.3c0.3,0.2,0.5,0.5,0.8,0.7
				C13.3,22.3,13.4,22.3,13.4,22.1z M18.2,19.2c0.1-0.1,0.1-0.1,0.3-0.2c-0.2-0.2-0.5-0.4-0.7-0.7c-0.1-0.1-0.2-0.1-0.3,0
				c-0.1,0.1-0.1,0.2,0,0.3C17.7,18.8,17.9,19,18.2,19.2z"/>
			<path d="M17.2,16.8c-0.1,0.1-0.1,0.2-0.1,0.2c-0.3,0.3-0.6,0.6-0.8,0.8c-0.1,0.1-0.3,0.1-0.4,0c-0.1-0.1-0.1-0.2,0-0.4
				c0.3-0.3,0.6-0.6,0.9-0.8c0.1-0.1,0.2-0.1,0.3-0.1C17.1,16.7,17.2,16.8,17.2,16.8z"/>
			<path d="M15.4,17.3c-0.1-0.1-0.2-0.1-0.2-0.2c0-0.1,0-0.2,0-0.2c0.3-0.3,0.6-0.6,0.9-0.9c0.1-0.1,0.2-0.1,0.3,0
				c0.1,0.1,0.1,0.2,0,0.3c-0.3,0.3-0.6,0.6-0.9,0.9C15.5,17.3,15.5,17.3,15.4,17.3z"/>
			<path d="M12.9,19.8c0.1,0,0.1,0,0.1,0c0.2,0.2,0.4,0.4,0.5,0.6c0,0,0,0.2-0.1,0.3c-0.1,0.1-0.2,0.1-0.3,0
				c-0.2-0.2-0.4-0.3-0.5-0.5c0,0,0-0.2,0-0.2C12.8,19.9,12.9,19.9,12.9,19.8z"/>
		</g>
	</g>
</g>
</svg>
