<?xml version="1.0" encoding="UTF-8"?>
<svg xmlns="http://www.w3.org/2000/svg" id="EN_1186" data-name="EN 1186" viewBox="0 0 400 400">
  <defs>
    <style>      .cls-1 {        fill: #000000;        stroke-width: 0px;      }    </style>
  </defs>
  <g>
    <path class="cls-1" d="M128.87,328.33h-15.48v8.33h14.26c1.05,0,1.83.24,2.35.71.52.47.78,1.09.78,1.86s-.25,1.4-.76,1.89c-.51.49-1.3.73-2.36.73h-14.26v9.65h16.02c1.08,0,1.89.25,2.44.75s.82,1.17.82,2-.27,1.45-.82,1.96c-.55.5-1.36.75-2.44.75h-18.68c-1.5,0-2.57-.33-3.23-1-.66-.66-.98-1.74-.98-3.22v-25.51c0-.99.15-1.79.44-2.42.29-.62.75-1.08,1.38-1.37.62-.29,1.42-.43,2.4-.43h18.15c1.1,0,1.91.24,2.44.73.53.49.8,1.12.8,1.91s-.27,1.45-.8,1.93-1.35.73-2.44.73Z"></path>
    <path class="cls-1" d="M147.09,326.58l13.22,20v-20.18c0-1.31.28-2.29.84-2.95s1.32-.98,2.28-.98,1.77.33,2.34.98c.57.66.86,1.64.86,2.95v26.69c0,2.98-1.24,4.47-3.7,4.47-.62,0-1.17-.09-1.67-.27-.49-.18-.96-.46-1.39-.84-.43-.39-.83-.84-1.2-1.35-.37-.52-.74-1.05-1.11-1.59l-12.89-19.77v19.88c0,1.3-.3,2.28-.9,2.94-.6.66-1.37,1-2.31,1s-1.75-.34-2.34-1.01c-.59-.67-.88-1.65-.88-2.93v-26.18c0-1.11.12-1.98.37-2.62.29-.69.78-1.26,1.46-1.7.68-.44,1.41-.66,2.2-.66.62,0,1.15.1,1.59.3.44.2.83.47,1.16.81.33.34.67.78,1.02,1.32.35.54.71,1.1,1.08,1.69Z"></path>
    <path class="cls-1" d="M195.67,353.79v-21.06c-3.92,3.01-6.56,4.51-7.92,4.51-.65,0-1.22-.26-1.72-.78-.5-.52-.75-1.11-.75-1.79,0-.79.25-1.37.74-1.74.49-.37,1.37-.85,2.62-1.44,1.87-.88,3.36-1.81,4.48-2.78,1.12-.97,2.11-2.06,2.97-3.26s1.43-1.94,1.69-2.22c.26-.28.76-.42,1.48-.42.82,0,1.47.32,1.97.95.49.63.74,1.5.74,2.62v26.5c0,3.1-1.06,4.65-3.17,4.65-.94,0-1.7-.32-2.27-.95-.57-.63-.86-1.57-.86-2.8Z"></path>
    <path class="cls-1" d="M223.93,353.79v-21.06c-3.92,3.01-6.56,4.51-7.92,4.51-.65,0-1.22-.26-1.72-.78-.5-.52-.75-1.11-.75-1.79,0-.79.25-1.37.74-1.74.49-.37,1.37-.85,2.62-1.44,1.87-.88,3.36-1.81,4.48-2.78s2.11-2.06,2.97-3.26c.86-1.2,1.43-1.94,1.69-2.22.26-.28.76-.42,1.48-.42.82,0,1.47.32,1.97.95s.74,1.5.74,2.62v26.5c0,3.1-1.06,4.65-3.17,4.65-.94,0-1.7-.32-2.27-.95-.57-.63-.86-1.57-.86-2.8Z"></path>
    <path class="cls-1" d="M241.99,331.64c0-1.54.42-3,1.26-4.36.84-1.37,2.08-2.46,3.7-3.27s3.53-1.23,5.71-1.23c1.84,0,3.45.24,4.84.72,1.39.48,2.55,1.14,3.47,1.98.93.84,1.61,1.79,2.06,2.85.45,1.06.67,2.18.67,3.37,0,1.51-.39,2.86-1.17,4.05-.78,1.19-1.94,2.16-3.48,2.92,1.31.51,2.4,1.18,3.26,2,.86.83,1.52,1.78,1.96,2.87.44,1.09.66,2.3.66,3.62,0,1.94-.47,3.71-1.41,5.29s-2.32,2.82-4.14,3.71c-1.82.89-3.97,1.34-6.43,1.34s-4.75-.45-6.57-1.34c-1.82-.89-3.19-2.13-4.12-3.69-.93-1.57-1.39-3.32-1.39-5.27,0-4.15,1.96-7,5.88-8.54-3.16-1.48-4.75-3.82-4.75-7.01ZM258.58,346.97c0-1.2-.25-2.25-.74-3.15-.49-.89-1.19-1.58-2.08-2.06-.9-.48-1.9-.72-3.01-.72-1.57,0-2.89.52-3.96,1.57-1.06,1.05-1.6,2.52-1.6,4.4,0,1.2.25,2.26.75,3.18.5.92,1.18,1.63,2.05,2.13s1.83.75,2.89.75,2.05-.25,2.92-.76,1.54-1.23,2.04-2.15c.49-.93.74-1.99.74-3.19ZM252.8,327.2c-1.45,0-2.62.45-3.51,1.35-.89.9-1.33,2.06-1.33,3.48,0,1.31.46,2.4,1.37,3.27.91.87,2.08,1.31,3.52,1.31.73,0,1.38-.12,1.98-.35.59-.23,1.1-.55,1.53-.96.42-.41.75-.89.98-1.46s.35-1.18.35-1.86c0-.91-.21-1.73-.61-2.45-.41-.73-.98-1.3-1.72-1.71-.74-.42-1.59-.62-2.55-.62Z"></path>
    <path class="cls-1" d="M275.67,338.61c1.05-1.25,2.19-2.18,3.43-2.78,1.23-.6,2.62-.9,4.14-.9s2.82.27,4.06.82c1.24.55,2.33,1.33,3.26,2.34.93,1.01,1.65,2.2,2.16,3.58.51,1.37.76,2.81.76,4.31,0,2.18-.5,4.15-1.49,5.93s-2.38,3.16-4.17,4.15c-1.78,1-3.8,1.49-6.05,1.49-2.59,0-4.83-.63-6.71-1.9-1.88-1.27-3.32-3.14-4.32-5.61-1-2.48-1.49-5.5-1.49-9.08,0-2.92.3-5.52.9-7.82.6-2.3,1.47-4.2,2.59-5.72,1.13-1.51,2.49-2.65,4.1-3.43,1.6-.77,3.43-1.16,5.49-1.16s3.71.39,5.22,1.16c1.5.77,2.64,1.73,3.4,2.87.76,1.14,1.15,2.24,1.15,3.29,0,.63-.24,1.21-.72,1.72-.48.52-1.09.78-1.83.78-.65,0-1.25-.2-1.81-.61-.56-.41-.96-.98-1.23-1.7-.36-.93-.92-1.67-1.69-2.23-.77-.56-1.67-.84-2.69-.84-.82,0-1.63.24-2.44.71-.81.47-1.49,1.11-2.05,1.91-1.13,1.64-1.79,4.55-1.99,8.75ZM281.92,352.98c1.56,0,2.85-.64,3.87-1.91s1.53-2.94,1.53-5.01c0-1.4-.24-2.61-.72-3.62-.48-1.01-1.13-1.78-1.97-2.31-.83-.53-1.75-.8-2.75-.8s-1.87.25-2.74.76c-.87.51-1.57,1.25-2.11,2.21-.53.96-.8,2.09-.8,3.39,0,2.08.54,3.82,1.62,5.21,1.08,1.39,2.44,2.08,4.07,2.08Z"></path>
  </g>
  <g>
    <path class="cls-1" d="M203.34,226.31l-24.48-8.15c-.94-.31-1.58-1.2-1.58-2.19v-36.92c0-1.23.97-2.25,2.2-2.3,10.09-.66,19.5-5.35,26.11-13,5.01-5.49,7.51-12.82,6.89-20.23l-4.26-26.64h-12.51c-1.27,0-2.3-1.03-2.3-2.3s1.03-2.3,2.3-2.3h11.77l-2.21-13.83h-60.6l-2.21,13.83h44.04c1.27,0,2.3,1.03,2.3,2.3s-1.03,2.3-2.3,2.3h-44.77l-4.28,26.75c-.59,7.38,1.92,14.67,6.91,20.12,6.61,7.66,16.02,12.34,26.11,13,1.23.05,2.2,1.07,2.2,2.3v36.92c0,.99-.63,1.87-1.58,2.19l-24.51,8.16c-.59.2-1.08.62-1.35,1.18h59.46c-.28-.56-.77-.99-1.37-1.18h0ZM203.34,226.31"></path>
    <path class="cls-1" d="M248.96,167.58h-5.07l-5.68,52.34c-.19,1.94.45,3.87,1.76,5.32,1.31,1.44,3.17,2.27,5.12,2.27h2.67c1.95,0,3.82-.83,5.13-2.28,1.31-1.45,1.95-3.39,1.75-5.33l-5.68-52.32ZM248.96,167.58"></path>
    <path class="cls-1" d="M262.51,131.3l-3.96-30.95c-.18-1.11-1.15-1.92-2.27-1.91h-3.04l2.4,34.41c.04.61-.16,1.22-.56,1.68-.4.46-.97.74-1.58.79h-.16c-1.21,0-2.22-.94-2.3-2.15l-2.41-34.73h-4.64l-2.16,34.71c-.08,1.22-1.09,2.16-2.3,2.16h-.15c-.61-.04-1.18-.32-1.59-.78-.4-.46-.61-1.06-.57-1.67l2.16-34.43h-2.8c-1.14,0-2.11.83-2.28,1.96l-3.94,30.85c-.51,3.33.45,6.71,2.65,9.27,2.19,2.55,5.39,4.02,8.76,4.02,1.29,0,2.34,1.02,2.37,2.3v6.91h4.61v-6.91c0-1.27,1.03-2.3,2.3-2.3h.07c3.36,0,6.55-1.46,8.74-4,2.19-2.54,3.17-5.91,2.67-9.23h0ZM262.51,131.3"></path>
    <rect class="cls-1" x="244.12" y="158.36" width="4.61" height="4.61"></rect>
  </g>
  <path class="cls-1" d="M310.5,72.09l-106.34-44.15c-2.66-1.11-5.66-1.11-8.32,0l-106.34,44.15c-4.05,1.68-6.69,5.63-6.69,10.02v53.67c0,73.9,44.67,140.38,113.09,168.3,2.63,1.07,5.57,1.07,8.2,0,68.42-27.93,113.09-94.4,113.09-168.3v-53.67c0-4.39-2.64-8.34-6.69-10.02ZM304.3,133c0,68.62-40.3,131.79-104.3,159.99-62.29-27.44-104.3-89.51-104.3-159.99v-50.71l104.3-43.3,104.3,43.3v50.71Z"></path>
</svg>
