<svg xmlns="http://www.w3.org/2000/svg" xmlns:xlink="http://www.w3.org/1999/xlink" id="Layer_1" x="0px" y="0px" width="418.591px" height="295.976px" viewBox="0 0 418.591 295.976" xml:space="preserve"><g>	<g>		<path fill-rule="evenodd" clip-rule="evenodd" fill="none" d="M212.707,1908.201c-188.809,0-377.617-0.012-566.426,0.085   c-3.605,0.002-4.684-0.582-4.682-4.507c0.117-250.967,0.119-501.935-0.015-752.901c-0.002-4.208,1.04-4.778,4.942-4.777   c377.451,0.107,754.901,0.107,1132.352,0.001c3.892-0.001,4.949,0.553,4.947,4.771c-0.136,250.968-0.133,501.935-0.017,752.901   c0.002,3.915-1.062,4.514-4.677,4.513C590.323,1908.189,401.516,1908.201,212.707,1908.201z M427.438,1533.412   c-0.118-124.307-98.89-219.268-215.148-221.726c-129.543-2.739-225.438,99.628-227.086,217.058   c-1.787,127.321,98.675,221.546,213.185,225.065C328.899,1757.821,427.354,1653.465,427.438,1533.412z"></path>		<path fill-rule="evenodd" clip-rule="evenodd" d="M427.438,1533.412c-0.084,120.053-98.539,224.409-229.05,220.397   c-114.51-3.52-214.971-97.744-213.185-225.065c1.647-117.43,97.543-219.797,227.086-217.058   C328.549,1314.145,427.32,1409.105,427.438,1533.412z M386.97,1532.934c0.256-100.584-81.515-178.273-174.269-180.839   c-107.155-2.963-184.748,81.908-187.069,175.085c-2.646,106.242,81.957,182.771,172.887,186.264   C305.376,1717.547,387.686,1630.386,386.97,1532.934z"></path>		<path fill-rule="evenodd" clip-rule="evenodd" fill="none" d="M386.97,1532.934c0.716,97.452-81.594,184.613-188.45,180.51   c-90.931-3.493-175.534-80.021-172.887-186.264c2.321-93.177,79.914-178.048,187.069-175.085   C305.455,1354.66,387.226,1432.35,386.97,1532.934z M207.438,1480.952c0-20.988-0.101-41.977,0.086-62.963   c0.036-4.095-0.569-5.841-5.318-5.655c-10.811,0.423-21.654,0.345-32.473,0.026c-4.164-0.122-4.849,1.378-4.837,5.095   c0.119,39.311,0.079,78.621,0.066,117.932c-0.002,4.117-0.06,8.187-0.895,12.306c-1.527,7.525-8.875,11.618-16.032,8.97   c-6.9-2.554-7.519-8.257-7.535-14.047c-0.117-41.642-0.119-83.284,0.026-124.926c0.015-4.017-0.795-5.465-5.12-5.33   c-10.65,0.331-21.323,0.306-31.976,0.01c-4.233-0.117-5.608,0.793-5.583,5.388c0.214,38.31,0.112,76.621,0.131,114.932   c0.003,6.616-0.174,13.217,0.931,19.819c1.576,9.431,5.5,17.788,12.461,24.063c15.722,14.173,35.264,13.164,54.464,12.015   c6.966-0.417,13.804-2.734,19.977-6.422c15.247-9.108,21.322-23.258,21.56-40.249   C207.655,1521.598,207.438,1501.273,207.438,1480.952z M223.971,1564.602c0,27.654,0.029,55.31-0.044,82.964   c-0.007,2.9,0.272,4.475,3.925,4.453c26.988-0.157,53.978-0.122,80.965-0.031c2.836,0.01,3.72-0.854,3.677-3.683   c-0.148-9.66-0.178-19.327,0.013-28.985c0.062-3.12-0.933-3.955-3.97-3.915c-11.992,0.156-23.999-0.227-35.979,0.198   c-5.171,0.183-6.261-1.385-6.236-6.341c0.204-42.314,0.061-84.63,0.208-126.945c0.014-3.979-1.103-5.03-4.994-4.938   c-10.989,0.257-21.993,0.263-32.981-0.005c-3.824-0.093-4.688,1.091-4.667,4.764   C224.04,1509.624,223.971,1537.113,223.971,1564.602z M152.3,1648.936c13.643,1.999,25.547-12.657,25.237-24.04   c-0.394-14.489-10.586-25.305-24.627-25.452c-13.538-0.142-24.756,11.03-25.211,24.925   C127.285,1637.021,140.077,1650.553,152.3,1648.936z"></path>		<path fill-rule="evenodd" clip-rule="evenodd" d="M207.438,1480.952c0,20.321,0.217,40.646-0.067,60.963   c-0.237,16.991-6.313,31.141-21.56,40.249c-6.173,3.688-13.011,6.005-19.977,6.422c-19.2,1.149-38.742,2.158-54.464-12.015   c-6.961-6.275-10.885-14.633-12.461-24.063c-1.104-6.603-0.928-13.203-0.931-19.819c-0.019-38.311,0.083-76.622-0.131-114.932   c-0.025-4.595,1.35-5.505,5.583-5.388c10.652,0.296,21.325,0.321,31.976-0.01c4.325-0.135,5.135,1.313,5.12,5.33   c-0.146,41.642-0.144,83.284-0.026,124.926c0.017,5.79,0.635,11.493,7.535,14.047c7.157,2.648,14.505-1.444,16.032-8.97   c0.835-4.119,0.893-8.188,0.895-12.306c0.013-39.311,0.053-78.621-0.066-117.932c-0.012-3.717,0.673-5.217,4.837-5.095   c10.818,0.318,21.662,0.396,32.473-0.026c4.749-0.186,5.354,1.561,5.318,5.655   C207.338,1438.976,207.438,1459.964,207.438,1480.952z"></path>		<path fill-rule="evenodd" clip-rule="evenodd" d="M223.971,1564.602c0-27.488,0.069-54.978-0.084-82.465   c-0.021-3.673,0.843-4.856,4.667-4.764c10.988,0.268,21.992,0.262,32.981,0.005c3.892-0.092,5.008,0.96,4.994,4.938   c-0.147,42.315-0.004,84.631-0.208,126.945c-0.024,4.956,1.065,6.523,6.236,6.341c11.979-0.425,23.986-0.042,35.979-0.198   c3.037-0.04,4.031,0.795,3.97,3.915c-0.19,9.658-0.161,19.325-0.013,28.985c0.043,2.828-0.841,3.692-3.677,3.683   c-26.987-0.091-53.977-0.126-80.965,0.031c-3.652,0.021-3.932-1.553-3.925-4.453C224,1619.911,223.971,1592.256,223.971,1564.602z   "></path>		<path fill-rule="evenodd" clip-rule="evenodd" d="M152.3,1648.936c-12.223,1.617-25.015-11.915-24.601-24.567   c0.455-13.895,11.673-25.066,25.211-24.925c14.041,0.147,24.233,10.963,24.627,25.452   C177.847,1636.278,165.942,1650.935,152.3,1648.936z M171.97,1624.743c0.956-12.073-10.549-20.882-19.032-20.976   c-11.113-0.122-19.991,9.688-20.33,21.053c-0.3,10.055,10.448,20.78,20.107,20.441   C164.249,1644.857,173.125,1632.928,171.97,1624.743z"></path>		<path fill-rule="evenodd" clip-rule="evenodd" fill="none" d="M171.97,1624.743c1.155,8.185-7.721,20.114-19.255,20.519   c-9.659,0.339-20.407-10.387-20.107-20.441c0.339-11.364,9.217-21.175,20.33-21.053   C161.421,1603.861,172.926,1612.67,171.97,1624.743z M162.602,1636.691c1.083-5.837-2.77-10.832-0.421-16.827   c1.877-4.79-0.547-7.575-5.681-8.229c-3.771-0.479-7.647-0.111-11.477-0.14c-1.487-0.011-2.037,0.764-2.034,2.169   c0.014,6.994,0.043,13.989-0.023,20.982c-0.021,2.21,1.283,2.29,2.919,2.296c1.539,0.006,2.625-0.302,2.54-2.155   c-0.046-0.996,0.065-2.002,0.002-2.996c-0.18-2.854-0.238-5.11,3.948-4.979c3.966,0.125,4.975,1.902,4.584,5.282   C156.427,1636.703,158.803,1637.587,162.602,1636.691z"></path>		<path fill-rule="evenodd" clip-rule="evenodd" d="M162.602,1636.691c-3.799,0.896-6.175,0.012-5.643-4.597   c0.391-3.38-0.618-5.157-4.584-5.282c-4.187-0.132-4.128,2.125-3.948,4.979c0.063,0.994-0.048,2-0.002,2.996   c0.085,1.854-1.001,2.161-2.54,2.155c-1.636-0.006-2.94-0.086-2.919-2.296c0.066-6.993,0.037-13.988,0.023-20.982   c-0.003-1.405,0.547-2.18,2.034-2.169c3.829,0.028,7.706-0.34,11.477,0.14c5.134,0.654,7.558,3.439,5.681,8.229   C159.832,1625.859,163.685,1630.854,162.602,1636.691z M152.188,1622.422c2.755,0.317,5.396-0.558,5.456-3.152   c0.096-4.145-4.024-3.563-6.613-4.201c-2.86-0.705-2.43,1.727-2.614,3.519C148.104,1621.608,149.177,1623.045,152.188,1622.422z"></path>		<path fill-rule="evenodd" clip-rule="evenodd" fill="none" d="M152.188,1622.422c-3.011,0.623-4.084-0.813-3.771-3.835   c0.185-1.792-0.246-4.224,2.614-3.519c2.589,0.638,6.709,0.057,6.613,4.201C157.584,1621.864,154.942,1622.739,152.188,1622.422z"></path>	</g></g><g>	<path d="M143.488,276.979v-29.152h20.375v4.932h-14.826v6.463h13.795v4.911h-13.795v7.935h15.351v4.912H143.488z"></path>	<path d="M169.917,276.979v-29.152h5.398l11.246,19.468v-19.468h5.155v29.152h-5.567l-11.078-19.011v19.011H169.917z"></path>	<path d="M208.434,269.244l5.098-0.656c0.162,1.379,0.6,2.433,1.312,3.161c0.713,0.729,1.575,1.094,2.587,1.094  c1.088,0,2.003-0.438,2.746-1.313c0.743-0.874,1.115-2.055,1.115-3.539c0-1.405-0.355-2.519-1.068-3.341  c-0.712-0.822-1.581-1.233-2.605-1.233c-0.675,0-1.48,0.14-2.418,0.418l0.581-4.554c1.425,0.04,2.512-0.288,3.262-0.984  s1.125-1.621,1.125-2.774c0-0.98-0.275-1.763-0.825-2.347c-0.55-0.583-1.281-0.875-2.193-0.875c-0.899,0-1.668,0.332-2.306,0.994  c-0.637,0.663-1.024,1.631-1.162,2.903l-4.854-0.874c0.337-1.764,0.846-3.172,1.528-4.227c0.681-1.054,1.63-1.882,2.849-2.485  s2.583-0.905,4.096-0.905c2.587,0,4.661,0.875,6.223,2.625c1.287,1.433,1.931,3.05,1.931,4.853c0,2.559-1.318,4.601-3.955,6.125  c1.575,0.357,2.834,1.16,3.777,2.406s1.415,2.751,1.415,4.514c0,2.559-0.881,4.74-2.643,6.543  c-1.763,1.803-3.955,2.704-6.579,2.704c-2.487,0-4.549-0.759-6.186-2.277C209.646,273.682,208.696,271.696,208.434,269.244z"></path>	<path d="M241.066,276.979v-5.866H229.82v-4.892l11.922-18.515h4.422v18.494h3.412v4.912h-3.412v5.866H241.066z M241.066,266.201  v-9.963l-6.316,9.963H241.066z"></path>	<path d="M252.669,269.244l5.099-0.656c0.162,1.379,0.6,2.433,1.312,3.161c0.713,0.729,1.575,1.094,2.587,1.094  c1.087,0,2.002-0.438,2.746-1.313c0.743-0.874,1.115-2.055,1.115-3.539c0-1.405-0.356-2.519-1.068-3.341s-1.581-1.233-2.605-1.233  c-0.675,0-1.48,0.14-2.418,0.418l0.581-4.554c1.425,0.04,2.512-0.288,3.262-0.984c0.749-0.696,1.124-1.621,1.124-2.774  c0-0.98-0.274-1.763-0.824-2.347c-0.55-0.583-1.281-0.875-2.193-0.875c-0.899,0-1.668,0.332-2.306,0.994  c-0.637,0.663-1.024,1.631-1.162,2.903l-4.854-0.874c0.337-1.764,0.847-3.172,1.527-4.227c0.682-1.054,1.631-1.882,2.85-2.485  c1.218-0.604,2.583-0.905,4.096-0.905c2.586,0,4.66,0.875,6.223,2.625c1.287,1.433,1.931,3.05,1.931,4.853  c0,2.559-1.318,4.601-3.955,6.125c1.574,0.357,2.833,1.16,3.777,2.406c0.943,1.246,1.415,2.751,1.415,4.514  c0,2.559-0.881,4.74-2.644,6.543c-1.762,1.803-3.954,2.704-6.579,2.704c-2.486,0-4.548-0.759-6.186-2.277  C253.881,273.682,252.932,271.696,252.669,269.244z"></path></g><path d="M114.628,22.697c61.863,0,123.416,0,185.329,0c0,1,0,1.932,0,2.866c0,25.11,0.149,50.222-0.123,75.33 c-0.055,5.215-1.246,10.533-2.66,15.595c-3.043,10.9-5.887,21.941-10.099,32.407c-4.162,10.347-9.49,20.295-15.06,29.987 c-8.193,14.266-19.052,26.521-31.156,37.594c-8.673,7.935-18.172,14.793-28.468,20.603c-4.116,2.321-7.132,2.23-10.938-0.463 c-7.992-5.657-16.624-10.448-24.373-16.402c-9.09-6.984-16.983-15.307-24.176-24.326c-8.015-10.047-14.864-20.776-20.484-32.287 c-7.288-14.934-12.599-30.541-15.766-46.896c-1.401-7.237-2.1-14.458-2.066-21.822c0.104-22.907,0.039-45.815,0.039-68.722 C114.628,25.109,114.628,24.057,114.628,22.697z M119.634,28.239c0,1.364,0,2.413,0,3.461c0,22.206-0.055,44.413,0.051,66.618 c0.02,4.166,0.322,8.399,1.123,12.479c2.162,11.034,4.839,21.937,8.825,32.506c4.584,12.155,10.005,23.902,17.295,34.643 c4.823,7.106,10.019,14.045,15.755,20.424c5.703,6.342,11.889,12.406,18.599,17.651c7.563,5.913,15.961,10.754,23.958,16.119 c1.261,0.845,2.244,0.759,3.554,0.091c10.63-5.414,20.074-12.534,28.809-20.532c11.382-10.42,21.331-22.121,29.524-35.254 c5.71-9.15,10.609-18.691,14.718-28.686c4.428-10.766,7.833-21.82,10.37-33.146c1.674-7.47,2.995-14.977,2.801-22.741 c-0.39-15.473-0.429-30.955-0.585-46.432c-0.049-4.846-0.001-9.693-0.014-14.54c-0.002-0.851-0.089-1.703-0.142-2.662 C236.04,28.239,178.011,28.239,119.634,28.239z"></path><g>	<path d="M206.816,119.5c-3.079,1.478-5.963,2.858-9.013,4.313c-3.247-3.67-7.62-5.242-12.599-4.189  c-3.023,0.632-5.922,1.97-8.799,3.188c-0.992,0.437-1.543,0.572-2.491-0.143c-5.144-3.858-10.632-3.339-16.188-1.004  c-0.488,0.199-0.966,0.44-1.797,0.834c0.284-0.88,0.474-1.508,0.688-2.094c4.39-11.585,12.534-19.756,23.3-25.486  c8.216-4.377,17.029-6.874,26.247-8.024c0.205-0.026,0.404-0.09,0.75-0.143v-4.711h4.838v4.456  c4.586,1.015,9.028,1.79,13.363,2.993c9.776,2.722,18.648,7.197,26.037,14.315c5.34,5.147,9.175,11.262,11.505,18.278  c-2.464-0.684-4.836-1.511-7.282-1.993c-3.906-0.759-7.539,0.166-10.656,2.625c-0.885,0.681-1.429,0.669-2.369,0.128  c-4.119-2.354-8.466-3.94-13.359-3.347c-3.339,0.402-5.988,2.046-8.317,4.505c-2.66-2.177-5.479-4.016-9.222-4.358v1.959v51.837  c0,5.392-3.339,9.114-8.74,9.731c-6.114,0.685-11.806-2.737-13.84-8.551c-0.468-1.347-0.488-2.918-0.419-4.369  c0.032-0.602,0.87-1.158,1.329-1.76c0.504,0.504,1.228,0.902,1.447,1.496c1.081,2.775,2.499,5.31,4.854,7.197  c2.638,2.136,6.051,2.451,8.63,0.854c1.309-0.809,2.072-1.914,2.083-3.523c0.041-17.868,0.104-35.725,0.146-53.589  C206.944,120.617,206.89,120.309,206.816,119.5"></path>	<path d="M258.309,76.518c-0.177,1.459-0.29,2.783-0.52,4.076c-0.259,1.515-1.472,2.572-2.803,2.606  c-1.286,0.015-2.655-1.08-2.897-2.309c-0.261-1.41,0.459-2.688,1.906-3.305c0.382-0.158,0.801-0.241,1.213-0.331  c0.524-0.117,1.061-0.188,1.571-0.309C257.28,76.818,257.776,76.668,258.309,76.518"></path>	<path d="M239.575,75.454c-0.203,1.485-0.315,2.846-0.609,4.178c-0.313,1.549-1.547,2.508-2.902,2.459  c-1.235-0.049-2.518-1.218-2.768-2.497c-0.228-1.279,0.636-2.715,2.113-3.181C236.706,75.999,238.084,75.785,239.575,75.454"></path>	<path d="M223.906,69.298c-0.216,1.519-0.315,2.933-0.646,4.309c-0.342,1.523-1.722,2.504-2.979,2.361  c-1.213-0.12-2.554-1.391-2.653-2.625c-0.098-1.497,0.654-2.542,2.032-3.057c0.694-0.259,1.44-0.331,2.164-0.493  C222.481,69.652,223.128,69.486,223.906,69.298"></path>	<path d="M236.466,53.611c-0.144,1.256-0.25,2.399-0.39,3.542c-0.261,2.031-1.918,3.501-3.499,3.061  c-1.256-0.365-2.152-1.132-2.288-2.527c-0.143-1.444,0.485-2.527,1.83-2.986C233.512,54.22,234.98,53.979,236.466,53.611"></path>	<path d="M201.214,74.341c-0.205,1.519-0.272,2.839-0.558,4.117c-0.361,1.669-1.603,2.64-3.011,2.467  c-1.41-0.166-2.35-0.966-2.622-2.392c-0.282-1.429,0.519-2.722,2.148-3.26C198.418,74.878,199.732,74.675,201.214,74.341"></path>	<path d="M249.874,59.804c-0.132,1.301-0.205,2.471-0.393,3.629c-0.199,1.267-0.747,2.481-2.091,2.749  c-0.813,0.162-1.937-0.034-2.602-0.511c-1.922-1.376-1.392-4.08,0.938-4.911C247.053,60.289,248.488,60.104,249.874,59.804"></path></g></svg>