<?xml version="1.0" encoding="UTF-8"?>
<svg xmlns="http://www.w3.org/2000/svg" xmlns:xlink="http://www.w3.org/1999/xlink" width="400" zoomAndPan="magnify" viewBox="0 0 300 299.999988" height="400" preserveAspectRatio="xMidYMid meet" version="1.0">
  <defs>
    <g></g>
    <clipPath id="722434bf59">
      <path d="M 0 0 L 300 0 L 300 3.453125 L 0 3.453125 Z M 296.546875 3.453125 L 300 3.453125 L 300 296.546875 L 296.546875 296.546875 Z M 0 3.453125 L 3.453125 3.453125 L 3.453125 296.546875 L 0 296.546875 Z M 0 296.546875 L 300 296.546875 L 300 300 L 0 300 Z M 0 296.546875 " clip-rule="nonzero"></path>
    </clipPath>
    <clipPath id="077c9a9565">
      <path d="M 53 21 L 247 21 L 247 242.023438 L 53 242.023438 Z M 53 21 " clip-rule="nonzero"></path>
    </clipPath>
    <clipPath id="45966e5560">
      <path d="M 95.238281 103.707031 L 204.609375 103.707031 L 204.609375 188.71875 L 95.238281 188.71875 Z M 95.238281 103.707031 " clip-rule="nonzero"></path>
    </clipPath>
    <clipPath id="95f6d74af9">
      <path d="M 95.175781 68.71875 L 204.675781 68.71875 L 204.675781 154 L 95.175781 154 Z M 95.175781 68.71875 " clip-rule="nonzero"></path>
    </clipPath>
    <clipPath id="7c98f84594">
      <path d="M 124 144 L 175 144 L 175 155 L 124 155 Z M 124 144 " clip-rule="nonzero"></path>
    </clipPath>
    <clipPath id="0380a7c83d">
      <path d="M 154.207031 124.9375 L 174.082031 154.953125 L 144.066406 174.832031 L 124.191406 144.8125 Z M 154.207031 124.9375 " clip-rule="nonzero"></path>
    </clipPath>
    <clipPath id="97f04bc2f8">
      <path d="M 154.207031 124.9375 L 174.082031 154.953125 L 144.066406 174.832031 L 124.191406 144.8125 Z M 154.207031 124.9375 " clip-rule="nonzero"></path>
    </clipPath>
    <clipPath id="51de688ff3">
      <path d="M 116 120 L 147 120 L 147 161 L 116 161 Z M 116 120 " clip-rule="nonzero"></path>
    </clipPath>
    <clipPath id="69f4591293">
      <path d="M 116.34375 156.355469 L 140.007812 120.109375 L 146.289062 124.210938 L 122.625 160.453125 Z M 116.34375 156.355469 " clip-rule="nonzero"></path>
    </clipPath>
    <clipPath id="eaceacd872">
      <path d="M 116.34375 156.355469 L 140.007812 120.109375 L 146.289062 124.210938 L 122.625 160.453125 Z M 116.34375 156.355469 " clip-rule="nonzero"></path>
    </clipPath>
    <clipPath id="27f3dcee81">
      <path d="M 120 127 L 154 127 L 154 171 L 120 171 Z M 120 127 " clip-rule="nonzero"></path>
    </clipPath>
    <clipPath id="327d435803">
      <path d="M 120.28125 164.089844 L 143.898438 127.914062 L 153.839844 134.40625 L 130.222656 170.578125 Z M 120.28125 164.089844 " clip-rule="nonzero"></path>
    </clipPath>
    <clipPath id="d7ab598ce4">
      <path d="M 120.28125 164.089844 L 143.898438 127.914062 L 153.839844 134.40625 L 130.222656 170.578125 Z M 120.28125 164.089844 " clip-rule="nonzero"></path>
    </clipPath>
  </defs>
  <rect x="-30" width="360" fill="#ffffff" y="-29.999999" height="359.999986" fill-opacity="1"></rect>
  <rect x="-30" width="360" fill="#ffffff" y="-29.999999" height="359.999986" fill-opacity="1"></rect>
  <rect x="-30" width="360" fill="#ffffff" y="-29.999999" height="359.999986" fill-opacity="1"></rect>
  <g clip-path="url(#722434bf59)">
    <rect x="-30" width="360" fill="#363437" y="-29.999999" height="359.999986" fill-opacity="1"></rect>
  </g>
  <g clip-path="url(#077c9a9565)">
    <path fill="#000000" d="M 62.222656 46.246094 L 62.222656 114.160156 C 62.222656 163.511719 93.640625 208.046875 144.21875 230.398438 C 146.125 231.238281 148.070312 232.066406 150.058594 232.875 C 152.050781 232.066406 153.996094 231.238281 155.90625 230.398438 C 206.480469 208.046875 237.898438 163.511719 237.898438 114.160156 L 237.898438 46.246094 C 181.132812 24.910156 118.992188 24.910156 62.222656 46.246094 Z M 150.058594 242.046875 C 149.503906 242.046875 148.953125 241.941406 148.425781 241.734375 C 145.765625 240.675781 143.171875 239.582031 140.652344 238.472656 C 86.828125 214.6875 53.394531 167.054688 53.394531 114.160156 L 53.394531 43.210938 C 53.394531 41.390625 54.511719 39.757812 56.207031 39.097656 C 116.730469 15.519531 183.386719 15.523438 243.914062 39.097656 C 245.609375 39.757812 246.722656 41.390625 246.722656 43.210938 L 246.722656 114.160156 C 246.722656 167.054688 213.289062 214.6875 159.472656 238.472656 C 156.949219 239.582031 154.355469 240.675781 151.691406 241.734375 C 151.167969 241.941406 150.617188 242.046875 150.058594 242.046875 " fill-opacity="1" fill-rule="nonzero"></path>
  </g>
  <g clip-path="url(#45966e5560)">
    <path fill="#020202" d="M 95.285156 188.71875 L 204.609375 188.71875 L 149.945312 103.765625 Z M 109.539062 180.9375 L 149.945312 118.136719 L 190.351562 180.9375 L 109.539062 180.9375 " fill-opacity="1" fill-rule="nonzero"></path>
  </g>
  <g clip-path="url(#95f6d74af9)">
    <path fill="#020202" d="M 95.238281 153.671875 L 204.5625 153.671875 L 149.902344 68.71875 Z M 109.492188 145.890625 L 149.902344 83.089844 L 190.308594 145.890625 L 109.492188 145.890625 " fill-opacity="1" fill-rule="nonzero"></path>
  </g>
  <g clip-path="url(#7c98f84594)">
    <g clip-path="url(#0380a7c83d)">
      <g clip-path="url(#97f04bc2f8)">
        <path fill="#ffffff" d="M 130.960938 154.992188 L 124.210938 144.800781 L 167.3125 144.78125 L 174.0625 154.972656 Z M 130.960938 154.992188 " fill-opacity="1" fill-rule="nonzero"></path>
      </g>
    </g>
  </g>
  <g clip-path="url(#51de688ff3)">
    <g clip-path="url(#69f4591293)">
      <g clip-path="url(#eaceacd872)">
        <path fill="#000000" d="M 116.34375 156.355469 L 140.007812 120.109375 L 146.289062 124.210938 L 122.625 160.453125 Z M 116.34375 156.355469 " fill-opacity="1" fill-rule="nonzero"></path>
      </g>
    </g>
  </g>
  <g fill="#000000" fill-opacity="1">
    <g transform="translate(33.239794, 280.649963)">
      <g>
        <path d="M 4.320312 0 L 28.996094 0 L 28.996094 -3.023438 L 7.9375 -3.023438 L 7.9375 -17.011719 L 26.839844 -17.011719 L 26.839844 -19.925781 L 7.9375 -19.925781 L 7.9375 -32.941406 L 28.511719 -32.941406 L 28.511719 -36.019531 L 4.320312 -36.019531 Z M 4.320312 0 "></path>
      </g>
    </g>
  </g>
  <g fill="#000000" fill-opacity="1">
    <g transform="translate(64.451802, 280.649963)">
      <g>
        <path d="M 4.320312 0 L 7.507812 0 L 7.507812 -30.835938 L 27.972656 0 L 31.535156 0 L 31.535156 -36.019531 L 28.351562 -36.019531 L 28.351562 -5.238281 L 7.882812 -36.019531 L 4.320312 -36.019531 Z M 4.320312 0 "></path>
      </g>
    </g>
  </g>
  <g fill="#000000" fill-opacity="1">
    <g transform="translate(100.307809, 280.649963)">
      <g></g>
    </g>
    <g transform="translate(113.807809, 280.649963)">
      <g>
        <path d="M 25.648438 -27.484375 C 25.273438 -30.023438 24.839844 -31.320312 23.761719 -32.722656 C 21.976562 -34.992188 18.898438 -36.394531 15.605469 -36.394531 C 10.746094 -36.394531 6.910156 -33.804688 4.914062 -29.214844 C 3.457031 -25.867188 2.863281 -22.085938 2.863281 -16.578125 C 2.863281 -10.421875 3.78125 -6.695312 5.941406 -3.671875 C 7.828125 -1.078125 11.070312 0.378906 14.902344 0.378906 C 21.707031 0.378906 26.242188 -4.375 26.242188 -11.503906 C 26.242188 -18.199219 21.652344 -22.949219 15.226562 -22.949219 C 11.339844 -22.949219 8.53125 -21.4375 6.371094 -18.253906 L 6.316406 -19.816406 C 6.316406 -23.058594 7.074219 -26.351562 8.476562 -28.996094 C 9.9375 -31.914062 12.3125 -33.316406 15.550781 -33.316406 C 19.386719 -33.316406 21.546875 -31.375 22.085938 -27.484375 Z M 14.851562 -19.925781 C 19.601562 -19.925781 22.625 -16.632812 22.625 -11.339844 C 22.625 -5.992188 19.601562 -2.699219 14.742188 -2.699219 C 9.828125 -2.699219 6.859375 -5.886719 6.859375 -11.285156 C 6.859375 -16.523438 9.988281 -19.925781 14.851562 -19.925781 Z M 14.851562 -19.925781 "></path>
      </g>
    </g>
  </g>
  <g fill="#000000" fill-opacity="1">
    <g transform="translate(142.913816, 280.649963)">
      <g>
        <path d="M 14.578125 -36.394531 C 6.964844 -36.394531 2.863281 -30.023438 2.863281 -18.253906 C 2.863281 -12.421875 3.511719 -8.800781 5.183594 -5.453125 C 7.019531 -1.726562 10.421875 0.378906 14.578125 0.378906 C 22.195312 0.378906 26.242188 -5.992188 26.242188 -18.035156 C 26.242188 -30.023438 22.195312 -36.394531 14.578125 -36.394531 Z M 14.578125 -33.316406 C 17.386719 -33.316406 19.925781 -31.429688 21.058594 -28.511719 C 22.085938 -25.972656 22.679688 -21.925781 22.679688 -17.980469 C 22.679688 -14.09375 22.085938 -10.207031 21.058594 -7.507812 C 19.980469 -4.589844 17.441406 -2.699219 14.578125 -2.699219 C 11.664062 -2.699219 9.125 -4.589844 8.046875 -7.507812 C 7.019531 -10.207031 6.425781 -14.09375 6.425781 -18.144531 C 6.425781 -21.925781 7.019531 -25.921875 8.046875 -28.511719 C 9.125 -31.429688 11.664062 -33.316406 14.578125 -33.316406 Z M 14.578125 -33.316406 "></path>
      </g>
    </g>
  </g>
  <g fill="#000000" fill-opacity="1">
    <g transform="translate(172.019824, 280.649963)">
      <g>
        <path d="M 3.402344 -8.476562 C 3.78125 -5.941406 4.265625 -4.644531 5.347656 -3.238281 C 7.074219 -1.027344 10.152344 0.378906 13.5 0.378906 C 18.304688 0.378906 22.195312 -2.214844 24.191406 -6.75 C 25.648438 -10.097656 26.242188 -13.878906 26.242188 -19.441406 C 26.242188 -25.597656 25.324219 -29.320312 23.164062 -32.347656 C 21.277344 -34.9375 18.035156 -36.394531 14.203125 -36.394531 C 7.398438 -36.394531 2.863281 -31.644531 2.863281 -24.460938 C 2.863281 -17.820312 7.453125 -13.015625 13.878906 -13.015625 C 17.710938 -13.015625 20.574219 -14.527344 22.679688 -17.710938 C 22.734375 -17.0625 22.789062 -16.363281 22.789062 -16.199219 C 22.789062 -12.90625 22.03125 -9.664062 20.628906 -6.964844 C 19.171875 -4.105469 16.792969 -2.699219 13.554688 -2.699219 C 9.71875 -2.699219 7.558594 -4.589844 6.964844 -8.476562 Z M 14.363281 -33.316406 C 19.277344 -33.316406 22.195312 -30.078125 22.195312 -24.730469 C 22.195312 -19.441406 19.0625 -16.039062 14.257812 -16.039062 C 9.449219 -16.039062 6.480469 -19.386719 6.480469 -24.679688 C 6.480469 -30.023438 9.503906 -33.316406 14.363281 -33.316406 Z M 14.363281 -33.316406 "></path>
      </g>
    </g>
  </g>
  <g fill="#000000" fill-opacity="1">
    <g transform="translate(201.125833, 280.649963)">
      <g>
        <path d="M 14.578125 -36.394531 C 6.964844 -36.394531 2.863281 -30.023438 2.863281 -18.253906 C 2.863281 -12.421875 3.511719 -8.800781 5.183594 -5.453125 C 7.019531 -1.726562 10.421875 0.378906 14.578125 0.378906 C 22.195312 0.378906 26.242188 -5.992188 26.242188 -18.035156 C 26.242188 -30.023438 22.195312 -36.394531 14.578125 -36.394531 Z M 14.578125 -33.316406 C 17.386719 -33.316406 19.925781 -31.429688 21.058594 -28.511719 C 22.085938 -25.972656 22.679688 -21.925781 22.679688 -17.980469 C 22.679688 -14.09375 22.085938 -10.207031 21.058594 -7.507812 C 19.980469 -4.589844 17.441406 -2.699219 14.578125 -2.699219 C 11.664062 -2.699219 9.125 -4.589844 8.046875 -7.507812 C 7.019531 -10.207031 6.425781 -14.09375 6.425781 -18.144531 C 6.425781 -21.925781 7.019531 -25.921875 8.046875 -28.511719 C 9.125 -31.429688 11.664062 -33.316406 14.578125 -33.316406 Z M 14.578125 -33.316406 "></path>
      </g>
    </g>
    <g transform="translate(230.231832, 280.649963)">
      <g>
        <path d="M 2.808594 -10.691406 C 2.808594 -8.855469 2.863281 -8.476562 3.1875 -7.289062 C 4.535156 -2.539062 8.746094 0.378906 14.363281 0.378906 C 21.328125 0.378906 26.242188 -4.210938 26.242188 -10.746094 C 26.242188 -15.066406 24.300781 -17.820312 20.140625 -19.277344 C 23.542969 -21.058594 25.109375 -23.597656 25.109375 -27.269531 C 25.109375 -32.671875 20.84375 -36.394531 14.6875 -36.394531 C 8.101562 -36.394531 3.5625 -32.074219 3.5625 -25.757812 L 3.5625 -25.164062 L 6.964844 -25.164062 C 7.019531 -27.378906 7.234375 -28.457031 7.882812 -29.753906 C 8.964844 -31.96875 11.503906 -33.265625 14.632812 -33.265625 C 18.898438 -33.265625 21.652344 -30.835938 21.652344 -27 C 21.652344 -22.734375 18.738281 -20.195312 13.769531 -20.195312 C 13.066406 -20.195312 12.691406 -20.25 11.933594 -20.359375 L 11.933594 -17.605469 C 13.015625 -17.65625 13.609375 -17.710938 14.363281 -17.710938 C 19.601562 -17.710938 22.679688 -15.011719 22.679688 -10.367188 C 22.679688 -5.886719 19.222656 -2.699219 14.363281 -2.699219 C 11.449219 -2.699219 8.800781 -3.996094 7.507812 -6.101562 C 6.75 -7.289062 6.425781 -8.476562 6.265625 -10.691406 Z M 2.808594 -10.691406 "></path>
      </g>
    </g>
  </g>
  <g clip-path="url(#27f3dcee81)">
    <g clip-path="url(#327d435803)">
      <g clip-path="url(#d7ab598ce4)">
        <path fill="#ffffff" d="M 120.28125 164.089844 L 143.898438 127.914062 L 153.839844 134.40625 L 130.222656 170.578125 Z M 120.28125 164.089844 " fill-opacity="1" fill-rule="nonzero"></path>
      </g>
    </g>
  </g>
</svg>
