<?xml version="1.0" encoding="UTF-8"?>
<svg xmlns="http://www.w3.org/2000/svg" id="EN20471" viewBox="0 0 400 400">
  <defs>
    <style>      .cls-1 {        fill: #000000;        stroke-width: 0px;      }    </style>
  </defs>
  <g>
    <path class="cls-1" d="M118.11,328.33h-15.48v8.33h14.26c1.05,0,1.83.24,2.35.71.52.47.78,1.09.78,1.86s-.25,1.4-.76,1.89c-.51.49-1.3.73-2.36.73h-14.26v9.65h16.02c1.08,0,1.89.25,2.44.75s.82,1.17.82,2-.27,1.45-.82,1.96c-.55.5-1.36.75-2.44.75h-18.68c-1.5,0-2.57-.33-3.23-1s-.98-1.74-.98-3.22v-25.51c0-.99.15-1.79.44-2.42s.75-1.08,1.38-1.37c.62-.29,1.42-.43,2.4-.43h18.15c1.1,0,1.91.24,2.44.73.53.49.8,1.12.8,1.91s-.27,1.45-.8,1.93-1.35.73-2.44.73Z"></path>
    <path class="cls-1" d="M136.32,326.58l13.22,20v-20.18c0-1.31.28-2.29.84-2.95.56-.66,1.32-.98,2.28-.98s1.77.33,2.34.98.86,1.64.86,2.95v26.69c0,2.98-1.23,4.47-3.7,4.47-.62,0-1.17-.09-1.67-.27-.49-.18-.96-.46-1.39-.84-.43-.39-.83-.84-1.2-1.35s-.74-1.05-1.11-1.59l-12.89-19.77v19.88c0,1.3-.3,2.28-.9,2.94-.6.66-1.37,1-2.31,1s-1.75-.34-2.34-1.01c-.59-.67-.88-1.65-.88-2.93v-26.18c0-1.11.12-1.98.37-2.62.29-.69.78-1.26,1.46-1.7s1.41-.66,2.2-.66c.62,0,1.15.1,1.58.3.44.2.83.47,1.16.81.33.34.67.78,1.02,1.32.35.54.71,1.1,1.08,1.69Z"></path>
    <path class="cls-1" d="M182.1,351.5h12.08c1.2,0,2.12.25,2.75.74.63.49.95,1.17.95,2.01,0,.76-.25,1.4-.75,1.92-.5.52-1.26.79-2.28.79h-17.04c-1.16,0-2.06-.32-2.71-.96-.65-.64-.97-1.39-.97-2.26,0-.56.21-1.29.62-2.21.42-.92.87-1.64,1.37-2.16,2.05-2.13,3.9-3.95,5.56-5.47,1.65-1.52,2.83-2.52,3.54-3,1.26-.9,2.32-1.79,3.16-2.7.84-.9,1.48-1.83,1.92-2.78.44-.95.66-1.88.66-2.79,0-.99-.24-1.87-.71-2.65-.47-.78-1.11-1.38-1.92-1.82-.81-.43-1.69-.65-2.65-.65-2.02,0-3.61.89-4.77,2.66-.15.23-.41.86-.78,1.9-.36,1.03-.77,1.83-1.23,2.38-.46.56-1.12.83-2,.83-.77,0-1.41-.25-1.92-.76s-.76-1.2-.76-2.08c0-1.06.24-2.18.72-3.33.48-1.16,1.19-2.21,2.14-3.15.95-.94,2.15-1.7,3.61-2.28s3.17-.87,5.13-.87c2.36,0,4.38.37,6.04,1.11,1.08.49,2.03,1.17,2.85,2.04.82.86,1.45,1.86,1.91,3,.46,1.13.68,2.31.68,3.53,0,1.91-.47,3.65-1.42,5.22-.95,1.57-1.92,2.79-2.9,3.68-.99.89-2.64,2.28-4.96,4.18s-3.92,3.37-4.78,4.42c-.37.42-.75.92-1.13,1.5Z"></path>
    <path class="cls-1" d="M225.71,340.32c0,2.53-.15,4.71-.46,6.53-.31,1.82-.88,3.47-1.71,4.95-1.05,1.82-2.41,3.23-4.07,4.21-1.67.99-3.52,1.48-5.55,1.48-2.35,0-4.45-.66-6.31-1.99s-3.26-3.16-4.2-5.51c-.48-1.28-.83-2.7-1.05-4.25-.22-1.55-.33-3.23-.33-5.03,0-2.33.12-4.43.37-6.3.25-1.87.63-3.47,1.16-4.81.91-2.22,2.23-3.92,3.97-5.08,1.74-1.16,3.81-1.75,6.21-1.75,1.59,0,3.03.26,4.33.78,1.3.52,2.44,1.27,3.41,2.27.98,1,1.81,2.23,2.49,3.69,1.17,2.55,1.76,6.15,1.76,10.81ZM219.37,339.86c0-2.82-.17-5.13-.51-6.93-.34-1.8-.91-3.16-1.71-4.07s-1.91-1.38-3.33-1.38c-2.04,0-3.45,1.03-4.25,3.08s-1.19,5.22-1.19,9.49c0,2.9.17,5.28.51,7.13.34,1.85.91,3.25,1.71,4.2.8.95,1.89,1.42,3.26,1.42s2.53-.49,3.33-1.48c.8-.99,1.37-2.4,1.69-4.24.32-1.84.49-4.24.49-7.22Z"></path>
    <path class="cls-1" d="M244.65,354.03v-4.31h-11.62c-1.47,0-2.57-.33-3.3-1-.73-.66-1.1-1.57-1.1-2.71,0-.29.05-.59.16-.89.11-.3.27-.62.49-.95.22-.33.44-.65.67-.96.23-.31.52-.69.86-1.13l12.27-16.41c.8-1.08,1.46-1.86,1.98-2.35.52-.49,1.14-.73,1.86-.73,2.35,0,3.52,1.34,3.52,4.03v17.92h1c1.19,0,2.14.16,2.86.49.72.32,1.08,1.03,1.08,2.13,0,.9-.29,1.55-.88,1.96-.59.41-1.47.61-2.64.61h-1.41v4.31c0,1.19-.26,2.07-.79,2.65-.52.58-1.23.87-2.11.87s-1.56-.3-2.09-.89c-.53-.59-.8-1.47-.8-2.63ZM234.7,344.54h9.95v-13.45l-9.95,13.45Z"></path>
    <path class="cls-1" d="M263.7,323.36h15.42c1.48,0,2.55.23,3.22.69s1,1.23,1,2.29c0,.65-.39,1.5-1.17,2.57-.78,1.06-1.67,2.24-2.66,3.53-1,1.29-2.02,2.89-3.08,4.8-1.06,1.91-2.03,4.25-2.91,7.01-.37,1.22-.63,2.23-.79,3.03s-.32,1.84-.51,3.12c-.19,1.28-.35,2.26-.49,2.94-.32,1.57-.78,2.67-1.38,3.28-.59.61-1.39.91-2.37.91s-1.7-.33-2.27-.98c-.57-.66-.86-1.62-.86-2.9,0-.99.21-2.33.62-4.03.42-1.7,1.09-3.73,2.04-6.1s2.12-4.8,3.53-7.29c1.41-2.49,3.09-4.97,5.03-7.44h-12.38c-1.3,0-2.26-.23-2.91-.71-.64-.47-.96-1.21-.96-2.21,0-1.06.34-1.75,1.02-2.06.68-.31,1.63-.46,2.85-.46Z"></path>
    <path class="cls-1" d="M297.96,353.79v-21.06c-3.92,3.01-6.56,4.51-7.92,4.51-.65,0-1.22-.26-1.72-.78-.5-.52-.75-1.11-.75-1.79,0-.79.25-1.37.74-1.74.49-.37,1.37-.85,2.62-1.44,1.87-.88,3.36-1.81,4.48-2.78,1.12-.97,2.11-2.06,2.97-3.26s1.43-1.94,1.69-2.22c.26-.28.76-.42,1.48-.42.82,0,1.47.32,1.97.95.49.63.74,1.5.74,2.62v26.5c0,3.1-1.06,4.65-3.17,4.65-.94,0-1.7-.32-2.27-.95-.57-.63-.86-1.57-.86-2.8Z"></path>
  </g>
  <path class="cls-1" d="M253.59,114.84l-21.73-28.97c-.7-.93-1.78-1.45-2.9-1.45h-7.24c-.72,0-1.43.22-2.01.61-11.98,7.98-27.46,7.98-39.43,0-.58-.39-1.28-.61-2.03-.61h-7.2c-1.2.04-2.18.47-2.92,1.45l-21.72,28.97c-.45.59-.72,1.38-.72,2.17v87.38c0,2,1.62,3.62,3.62,3.62h101.38c2,0,3.62-1.62,3.62-3.62v-87.38c0-.81-.28-1.58-.72-2.17h0ZM210.86,200.78h-21.72v-7.24h21.72v7.24ZM174.65,120.64v-28.97h1.66c8.4,13.25,12.83,28.49,12.83,44.21v14.2h-36.21v-16.91c2.13,1.24,4.6,1.95,7.24,1.95,7.99,0,14.48-6.5,14.48-14.48h0ZM247.07,157.33v7.24h-28.97v-7.24h28.97ZM196.38,186.29v-14.48h7.24v14.48h-7.24ZM152.93,164.57v-7.24h28.97v7.24h-28.97ZM210.86,157.33v7.24h-21.72v-7.24h21.72ZM152.93,171.81h36.21v14.48h-36.21v-14.48ZM210.86,186.29v-14.48h36.21v14.48h-36.21ZM210.86,150.09v-14.2c0-15.72,4.43-30.97,12.83-44.21h1.66v28.97c0,7.99,6.5,14.48,14.48,14.48,2.64,0,5.11-.71,7.24-1.95v16.91h-36.21ZM247.07,120.64c0,3.99-3.25,7.24-7.24,7.24s-7.24-3.25-7.24-7.24v-21.73l14.48,19.31v2.41ZM212.8,96.3c-6.03,12.27-9.18,25.76-9.18,39.59v14.2h-7.24v-14.2c0-13.83-3.15-27.31-9.18-39.58,8.11,2.55,17.04,2.7,25.61,0h0ZM167.41,120.64c0,3.99-3.25,7.24-7.24,7.24s-7.24-3.25-7.24-7.24v-2.41l14.48-19.31v21.73ZM152.93,193.54h28.97v7.24h-28.97v-7.24ZM218.1,200.78v-7.24h28.97v7.24h-28.97ZM218.1,200.78"></path>
  <path class="cls-1" d="M310.5,72.09l-106.34-44.15c-2.66-1.11-5.66-1.11-8.32,0l-106.34,44.15c-4.05,1.68-6.69,5.63-6.69,10.02v53.67c0,73.9,44.67,140.38,113.09,168.3,2.63,1.07,5.57,1.07,8.2,0,68.42-27.93,113.09-94.4,113.09-168.3v-53.67c0-4.39-2.64-8.34-6.69-10.02ZM304.3,133c0,68.62-40.3,131.79-104.3,159.99-62.29-27.44-104.3-89.51-104.3-159.99v-50.71l104.3-43.3,104.3,43.3v50.71Z"></path>
</svg>
