<?xml version="1.0" encoding="UTF-8"?>
<svg id="Layer_1" data-name="Layer 1" xmlns="http://www.w3.org/2000/svg" version="1.1" viewBox="0 0 100 116">
  <defs>
    <style>
      .cls-1 {
        fill: #000000;
        stroke-width: 0px;
      }
    </style>
  </defs>
  <path class="cls-1" d="M92.1,36c0-3.2,0-6.4,0-9.7v-10.5H7.9v1c0,2,0,3.9,0,5.9,0,4.3,0,8.3,0,12.4,0,3,0,6.1,0,9.1,0,7.4,0,15,.8,22.4,1.3,11,5.5,20.5,12.6,29,6,7.1,14.1,13.4,24.9,19.5.9.5,2.2.8,3.5.8s2.4-.3,3.1-.7c6.5-4,13.1-8.2,19.2-13.2,13-10.7,19.8-25.5,20-44.2,0-7.3,0-14.7,0-21.8h0ZM85.3,65.2c-1.2,15.6-9.9,28.6-26.6,39.7-.7.5-1.4.9-2,1.4-3.6,2.4-5.5,3.7-7,3.7s-3-1.1-6.1-3.4c-.8-.6-1.7-1.2-2.6-1.9-14.8-10.4-22.6-20.9-25.2-34.1-.8-3.8-1.5-7.8-1.6-11.8-.2-10.2-.2-32-.2-36.9h71.8c.1,5.3.5,30.6-.5,43.4h0Z"/>
  <g id="en374-1">
    <g>
      <path class="cls-1" d="M64.5,91.3l-7.5-44.4c.2-.5.7-1.2,2.7-3.2l.5-.5-2-2-.5.5c-2.5,2.5-3.3,3.4-3.6,5v.2s3.9,23,3.9,23h-16.3l3.9-23v-.2s0-.1,0-.1c-.2-1.5-1.1-2.4-3.6-4.9l-.5-.5-2,2,.5.5c2,2,2.6,2.7,2.7,3.2l-7.5,44.4h29.3Z"/>
      <path class="cls-1" d="M54.4,41.1c3.8-2,7.1-3.7,11.7-2.4,1.5.4,2.5.8,3.6,1.2,1.8.7,3.4,1.3,6.7,1.5v-1.3c-3.1-.1-4.5-.7-6.2-1.4-1-.4-2.1-.8-3.7-1.3-5.1-1.4-8.8.5-12.6,2.5l-.6.3.6,1.2.6-.3Z"/>
      <path class="cls-1" d="M54.4,37.9c3.8-2,7.1-3.7,11.7-2.4,1.5.4,2.5.8,3.6,1.2,1.8.7,3.4,1.3,6.7,1.5v-1.3c-3.1-.1-4.5-.7-6.2-1.4-1-.4-2.1-.8-3.7-1.3-5.1-1.4-8.8.5-12.6,2.5l-.6.3.6,1.2.6-.3Z"/>
      <path class="cls-1" d="M54.4,34.6c3.8-2,7.1-3.7,11.7-2.4,1.5.4,2.5.8,3.6,1.2,1.8.7,3.4,1.3,6.7,1.5v-1.3c-3.1-.1-4.5-.7-6.2-1.4-1-.4-2.1-.8-3.7-1.3-5.1-1.4-8.8.5-12.6,2.5l-.6.3.6,1.2.6-.3Z"/>
      <path class="cls-1" d="M54.4,31.3c3.8-2,7.1-3.7,11.7-2.4,1.5.4,2.5.8,3.6,1.2,1.8.7,3.4,1.3,6.7,1.5v-1.3c-3.1-.1-4.5-.7-6.2-1.4-1-.4-2.1-.8-3.7-1.3-5.1-1.4-8.8.5-12.6,2.6l-.6.3.6,1.2.6-.3Z"/>
    </g>
    <g>
      <path class="cls-1" d="M31.6,7.9h-5v3.2h5.5v2.5h-8.6V0h8.3v2.5h-5.3v2.8h5v2.5Z"/>
      <path class="cls-1" d="M34.3,13.6V0h3.6l2.8,4.9c.8,1.4,1.6,3.1,2.2,4.6h0c-.2-1.8-.3-3.6-.3-5.6V0h2.8v13.5h-3.2l-2.9-5.2c-.8-1.4-1.7-3.2-2.3-4.8h0c0,1.8.1,3.7.1,5.9v4.1h-2.8Z"/>
      <path class="cls-1" d="M47.9,10.6c.5.3,1.8.8,3,.8s2.4-.8,2.4-1.7-1.3-1.9-2.6-1.9h-1.2v-2.2h1.2c1,0,2.3-.4,2.3-1.5s-.6-1.4-1.9-1.4-2.2.5-2.7.8l-.6-2.2c.8-.5,2.3-1,4-1,2.8,0,4.3,1.5,4.3,3.2s-.8,2.5-2.4,3h0c1.6.3,2.8,1.5,2.8,3.2s-2,4-5.3,4-3.1-.4-3.9-.9l.6-2.3Z"/>
      <path class="cls-1" d="M67.2.6v1.9l-5.4,11.1h-3.2l5.4-10.5h0s-6,0-6,0V.6h9.2Z"/>
      <path class="cls-1" d="M73,13.6v-3.1h-5.8v-2l4.9-7.9h3.7v7.6h1.6v2.3h-1.6v3.1h-2.9ZM73,8.2v-2.9c0-.8,0-1.6.1-2.4h0c-.4.8-.8,1.6-1.2,2.4l-1.7,2.8h0s2.9,0,2.9,0Z"/>
    </g>
  </g>
</svg>
