<svg xmlns="http://www.w3.org/2000/svg" xmlns:xlink="http://www.w3.org/1999/xlink" id="Layer_1" x="0px" y="0px" width="418.591px" height="295.976px" viewBox="0 0 418.591 295.976" xml:space="preserve"><g>	<g>		<path fill-rule="evenodd" clip-rule="evenodd" fill="none" d="M212.707,1908.201c-188.809,0-377.617-0.012-566.426,0.085   c-3.605,0.002-4.684-0.582-4.682-4.507c0.117-250.967,0.119-501.935-0.015-752.901c-0.002-4.208,1.04-4.778,4.942-4.777   c377.451,0.107,754.901,0.107,1132.352,0.001c3.892-0.001,4.949,0.553,4.947,4.771c-0.136,250.968-0.133,501.935-0.017,752.901   c0.002,3.915-1.062,4.514-4.677,4.513C590.323,1908.189,401.516,1908.201,212.707,1908.201z M427.438,1533.412   c-0.118-124.307-98.89-219.268-215.148-221.726c-129.543-2.739-225.438,99.628-227.086,217.058   c-1.787,127.321,98.675,221.546,213.185,225.065C328.899,1757.821,427.354,1653.465,427.438,1533.412z"></path>		<path fill-rule="evenodd" clip-rule="evenodd" d="M427.438,1533.412c-0.084,120.053-98.539,224.409-229.05,220.397   c-114.51-3.52-214.971-97.744-213.185-225.065c1.647-117.43,97.543-219.797,227.086-217.058   C328.549,1314.145,427.32,1409.105,427.438,1533.412z M386.97,1532.934c0.256-100.584-81.515-178.273-174.269-180.839   c-107.155-2.963-184.748,81.908-187.069,175.085c-2.646,106.242,81.957,182.771,172.887,186.264   C305.376,1717.547,387.686,1630.386,386.97,1532.934z"></path>		<path fill-rule="evenodd" clip-rule="evenodd" fill="none" d="M386.97,1532.934c0.716,97.452-81.594,184.613-188.45,180.51   c-90.931-3.493-175.534-80.021-172.887-186.264c2.321-93.177,79.914-178.048,187.069-175.085   C305.455,1354.66,387.226,1432.35,386.97,1532.934z M207.438,1480.952c0-20.988-0.101-41.977,0.086-62.963   c0.036-4.095-0.569-5.841-5.318-5.655c-10.811,0.423-21.654,0.345-32.473,0.026c-4.164-0.122-4.849,1.378-4.837,5.095   c0.119,39.311,0.079,78.621,0.066,117.932c-0.002,4.117-0.06,8.187-0.895,12.306c-1.527,7.525-8.875,11.618-16.032,8.97   c-6.9-2.554-7.519-8.257-7.535-14.047c-0.117-41.642-0.119-83.284,0.026-124.926c0.015-4.017-0.795-5.465-5.12-5.33   c-10.65,0.331-21.323,0.306-31.976,0.01c-4.233-0.117-5.608,0.793-5.583,5.388c0.214,38.31,0.112,76.621,0.131,114.932   c0.003,6.616-0.174,13.217,0.931,19.819c1.576,9.431,5.5,17.788,12.461,24.063c15.722,14.173,35.264,13.164,54.464,12.015   c6.966-0.417,13.804-2.734,19.977-6.422c15.247-9.108,21.322-23.258,21.56-40.249   C207.655,1521.598,207.438,1501.273,207.438,1480.952z M223.971,1564.602c0,27.654,0.029,55.31-0.044,82.964   c-0.007,2.9,0.272,4.475,3.925,4.453c26.988-0.157,53.978-0.122,80.965-0.031c2.836,0.01,3.72-0.854,3.677-3.683   c-0.148-9.66-0.178-19.327,0.013-28.985c0.062-3.12-0.933-3.955-3.97-3.915c-11.992,0.156-23.999-0.227-35.979,0.198   c-5.171,0.183-6.261-1.385-6.236-6.341c0.204-42.314,0.061-84.63,0.208-126.945c0.014-3.979-1.103-5.03-4.994-4.938   c-10.989,0.257-21.993,0.263-32.981-0.005c-3.824-0.093-4.688,1.091-4.667,4.764   C224.04,1509.624,223.971,1537.113,223.971,1564.602z M152.3,1648.936c13.643,1.999,25.547-12.657,25.237-24.04   c-0.394-14.489-10.586-25.305-24.627-25.452c-13.538-0.142-24.756,11.03-25.211,24.925   C127.285,1637.021,140.077,1650.553,152.3,1648.936z"></path>		<path fill-rule="evenodd" clip-rule="evenodd" d="M207.438,1480.952c0,20.321,0.217,40.646-0.067,60.963   c-0.237,16.991-6.313,31.141-21.56,40.249c-6.173,3.688-13.011,6.005-19.977,6.422c-19.2,1.149-38.742,2.158-54.464-12.015   c-6.961-6.275-10.885-14.633-12.461-24.063c-1.104-6.603-0.928-13.203-0.931-19.819c-0.019-38.311,0.083-76.622-0.131-114.932   c-0.025-4.595,1.35-5.505,5.583-5.388c10.652,0.296,21.325,0.321,31.976-0.01c4.325-0.135,5.135,1.313,5.12,5.33   c-0.146,41.642-0.144,83.284-0.026,124.926c0.017,5.79,0.635,11.493,7.535,14.047c7.157,2.648,14.505-1.444,16.032-8.97   c0.835-4.119,0.893-8.188,0.895-12.306c0.013-39.311,0.053-78.621-0.066-117.932c-0.012-3.717,0.673-5.217,4.837-5.095   c10.818,0.318,21.662,0.396,32.473-0.026c4.749-0.186,5.354,1.561,5.318,5.655   C207.338,1438.976,207.438,1459.964,207.438,1480.952z"></path>		<path fill-rule="evenodd" clip-rule="evenodd" d="M223.971,1564.602c0-27.488,0.069-54.978-0.084-82.465   c-0.021-3.673,0.843-4.856,4.667-4.764c10.988,0.268,21.992,0.262,32.981,0.005c3.892-0.092,5.008,0.96,4.994,4.938   c-0.147,42.315-0.004,84.631-0.208,126.945c-0.024,4.956,1.065,6.523,6.236,6.341c11.979-0.425,23.986-0.042,35.979-0.198   c3.037-0.04,4.031,0.795,3.97,3.915c-0.19,9.658-0.161,19.325-0.013,28.985c0.043,2.828-0.841,3.692-3.677,3.683   c-26.987-0.091-53.977-0.126-80.965,0.031c-3.652,0.021-3.932-1.553-3.925-4.453C224,1619.911,223.971,1592.256,223.971,1564.602z   "></path>		<path fill-rule="evenodd" clip-rule="evenodd" d="M152.3,1648.936c-12.223,1.617-25.015-11.915-24.601-24.567   c0.455-13.895,11.673-25.066,25.211-24.925c14.041,0.147,24.233,10.963,24.627,25.452   C177.847,1636.278,165.942,1650.935,152.3,1648.936z M171.97,1624.743c0.956-12.073-10.549-20.882-19.032-20.976   c-11.113-0.122-19.991,9.688-20.33,21.053c-0.3,10.055,10.448,20.78,20.107,20.441   C164.249,1644.857,173.125,1632.928,171.97,1624.743z"></path>		<path fill-rule="evenodd" clip-rule="evenodd" fill="none" d="M171.97,1624.743c1.155,8.185-7.721,20.114-19.255,20.519   c-9.659,0.339-20.407-10.387-20.107-20.441c0.339-11.364,9.217-21.175,20.33-21.053   C161.421,1603.861,172.926,1612.67,171.97,1624.743z M162.602,1636.691c1.083-5.837-2.77-10.832-0.421-16.827   c1.877-4.79-0.547-7.575-5.681-8.229c-3.771-0.479-7.647-0.111-11.477-0.14c-1.487-0.011-2.037,0.764-2.034,2.169   c0.014,6.994,0.043,13.989-0.023,20.982c-0.021,2.21,1.283,2.29,2.919,2.296c1.539,0.006,2.625-0.302,2.54-2.155   c-0.046-0.996,0.065-2.002,0.002-2.996c-0.18-2.854-0.238-5.11,3.948-4.979c3.966,0.125,4.975,1.902,4.584,5.282   C156.427,1636.703,158.803,1637.587,162.602,1636.691z"></path>		<path fill-rule="evenodd" clip-rule="evenodd" d="M162.602,1636.691c-3.799,0.896-6.175,0.012-5.643-4.597   c0.391-3.38-0.618-5.157-4.584-5.282c-4.187-0.132-4.128,2.125-3.948,4.979c0.063,0.994-0.048,2-0.002,2.996   c0.085,1.854-1.001,2.161-2.54,2.155c-1.636-0.006-2.94-0.086-2.919-2.296c0.066-6.993,0.037-13.988,0.023-20.982   c-0.003-1.405,0.547-2.18,2.034-2.169c3.829,0.028,7.706-0.34,11.477,0.14c5.134,0.654,7.558,3.439,5.681,8.229   C159.832,1625.859,163.685,1630.854,162.602,1636.691z M152.188,1622.422c2.755,0.317,5.396-0.558,5.456-3.152   c0.096-4.145-4.024-3.563-6.613-4.201c-2.86-0.705-2.43,1.727-2.614,3.519C148.104,1621.608,149.177,1623.045,152.188,1622.422z"></path>		<path fill-rule="evenodd" clip-rule="evenodd" fill="none" d="M152.188,1622.422c-3.011,0.623-4.084-0.813-3.771-3.835   c0.185-1.792-0.246-4.224,2.614-3.519c2.589,0.638,6.709,0.057,6.613,4.201C157.584,1621.864,154.942,1622.739,152.188,1622.422z"></path>	</g></g><text transform="matrix(1 0 0 1.0609 143.3149 403.3779)"><tspan x="0" y="0" font-family="'Arial-BoldMT'" font-size="38.3878">EN</tspan><tspan x="54.862" y="0" font-family="'Arial-BoldMT'" font-size="38.3878"> </tspan><tspan x="66.257" y="0" font-family="'Arial-BoldMT'" font-size="38.3878">407</tspan></text><g>	<path d="M145.107,42.044V12.892h20.375v4.932h-14.826v6.463h13.795v4.911h-13.795v7.935h15.351v4.912H145.107z"></path>	<path d="M171.535,42.044V12.892h5.398L188.18,32.36V12.892h5.155v29.152h-5.567L176.69,23.034v19.011H171.535z"></path>	<path d="M220.529,42.044v-5.866h-11.246v-4.892l11.921-18.515h4.424v18.494h3.411v4.912h-3.411v5.866H220.529z M220.529,31.266  v-9.963l-6.316,9.963H220.529z"></path>	<path d="M239.533,12.772c2.661,0,4.741,1.008,6.241,3.023c1.787,2.386,2.68,6.343,2.68,11.871c0,5.516-0.898,9.479-2.699,11.893  c-1.486,1.988-3.561,2.982-6.222,2.982c-2.675,0-4.83-1.09-6.467-3.271c-1.638-2.181-2.456-6.068-2.456-11.663  c0-5.488,0.9-9.438,2.699-11.852C234.797,13.767,236.871,12.772,239.533,12.772z M239.533,17.406c-0.638,0-1.206,0.216-1.706,0.646  s-0.888,1.203-1.162,2.316c-0.362,1.445-0.544,3.878-0.544,7.298c0,3.421,0.163,5.771,0.487,7.05  c0.325,1.279,0.734,2.132,1.229,2.556c0.493,0.424,1.059,0.636,1.696,0.636c0.637,0,1.205-0.215,1.705-0.646  s0.888-1.203,1.163-2.317c0.361-1.432,0.543-3.857,0.543-7.278c0-3.42-0.162-5.77-0.488-7.049  c-0.324-1.279-0.733-2.135-1.227-2.565C240.735,17.622,240.17,17.406,239.533,17.406z"></path>	<path d="M251.058,18.48v-5.19h18.013v4.057c-1.487,1.551-2.999,3.778-4.536,6.682s-2.708,5.989-3.515,9.257  c-0.806,3.269-1.202,6.188-1.189,8.76h-5.08c0.087-4.03,0.872-8.14,2.353-12.329s3.458-7.935,5.933-11.235H251.058z"></path></g><path d="M114.628,51.762c61.863,0,123.416,0,185.329,0c0,1,0,1.932,0,2.866c0,25.11,0.149,50.222-0.123,75.33 c-0.055,5.215-1.246,10.533-2.66,15.595c-3.043,10.9-5.887,21.941-10.099,32.407c-4.162,10.347-9.49,20.295-15.06,29.987 c-8.193,14.266-19.052,26.521-31.156,37.594c-8.673,7.935-18.172,14.793-28.468,20.603c-4.116,2.321-7.132,2.23-10.938-0.463 c-7.992-5.657-16.624-10.448-24.373-16.402c-9.09-6.984-16.983-15.307-24.176-24.326c-8.015-10.047-14.864-20.776-20.484-32.287 c-7.288-14.934-12.599-30.541-15.766-46.896c-1.401-7.237-2.1-14.458-2.066-21.822c0.104-22.907,0.039-45.815,0.039-68.722 C114.628,54.174,114.628,53.122,114.628,51.762z M119.634,57.305c0,1.364,0,2.413,0,3.461c0,22.206-0.055,44.413,0.051,66.618 c0.02,4.166,0.322,8.399,1.123,12.479c2.162,11.034,4.839,21.937,8.825,32.506c4.584,12.155,10.005,23.902,17.295,34.643 c4.823,7.106,10.019,14.045,15.755,20.424c5.703,6.342,11.889,12.406,18.599,17.651c7.563,5.913,15.961,10.754,23.958,16.119 c1.261,0.845,2.244,0.759,3.554,0.091c10.63-5.414,20.074-12.534,28.809-20.532c11.382-10.42,21.331-22.121,29.524-35.254 c5.71-9.15,10.609-18.691,14.718-28.686c4.428-10.766,7.833-21.82,10.37-33.146c1.674-7.47,2.995-14.977,2.801-22.741 c-0.39-15.473-0.429-30.955-0.585-46.432c-0.049-4.846-0.001-9.693-0.014-14.54c-0.002-0.851-0.089-1.703-0.142-2.662 C236.04,57.305,178.011,57.305,119.634,57.305z"></path><g>	<path fill-rule="evenodd" clip-rule="evenodd" d="M171.777,152.182c2.758-9.187,3.253-18.171,1.967-27.765  c4.258,2.56,7.273,5.366,8.166,9.938c4.484-3.263,7.529-23.3,3.106-30.465c2.874-1.487,7.611,2.589,10.248,8.975  c2.022-1.868,2.836-4.204,3.001-6.692c0.399-6.015,0.559-12.045,0.944-18.061c0.111-1.729,0.559-3.462,1.071-5.125  c0.178-0.581,1.015-0.959,1.551-1.429c0.318,0.554,0.942,1.129,0.908,1.66c-0.412,6.355,2.85,10.903,6.884,15.339  c3.987,4.386,6.696,9.58,7.069,15.747c0.239,0.043,0.477,0.086,0.714,0.13c0.814-2.138,1.584-4.293,2.467-6.402  c0.327-0.784,0.919-1.456,1.389-2.179c0.668,0.567,1.558,1.006,1.967,1.721c4.432,7.727,7.839,15.854,9.376,24.686  c0.114,0.651,0.246,1.299,0.939,2.115c0.792-1.64,1.584-3.28,2.56-5.301c0.644,0.676,1.364,1.257,1.868,1.989  c3.205,4.657,4.531,10.004,5.139,15.485c0.616,5.56,0.787,11.168,1.146,16.66c1.7-0.923,3.719-2.021,6.288-3.415  c0,1.626,0.083,2.569-0.014,3.494c-1.449,14.027-15.078,29.972-28.731,33.58c-4.181,1.104-8.415,1.125-13.225,0.297  c12.747-7.654,19.81-18.347,20.73-33.199c-1.271,0.532-2.244,1.069-3.285,1.354c-2.595,0.709-3.905-0.574-3.297-3.11  c0.805-3.351,1.008-6.629-1.29-9.867c-2.36,3.333-3.825,7.269-8.141,9.202c0-4.591,0.378-8.926-0.105-13.163  c-0.495-4.331-2.367-8.267-6.193-11.313c-0.564,8.905,0.478,17.888-5.801,25.946c-2.061-2.858-3.842-5.329-5.51-7.642  c-1.659,4.039-1.152,11.851,1.072,20.597c-2.415-2.839-5.017-5.543-7.192-8.557c-2.167-2.998-3.904-6.307-6.39-9.484  c0.442,4.986,0.884,9.971,1.338,15.086c-0.789-0.297-1.804-0.682-3.137-1.185c2.413,10.623,7.909,18.961,16.567,25.271  c-2.286,1.439-7.835,1.979-11.94,1.197c-9.371-1.788-17.285-10.181-19.365-20.654c-1.895-9.545-1.247-19.141-0.494-29.166  C168.117,149.774,169.844,150.911,171.777,152.182z M200.717,155.324c2.734-4.857,3.743-14.748,1.824-17.884  C197.612,142.372,196.801,150.319,200.717,155.324z"></path>	<path fill-rule="evenodd" clip-rule="evenodd" d="M228.817,203.578c0,2.087,0,3.964,0,5.977c-15.197,0-30.274,0-45.55,0  c0-1.93,0-3.858,0-5.977C198.388,203.578,213.519,203.578,228.817,203.578z"></path></g></svg>