<?xml version="1.0" encoding="utf-8"?>
<!-- Generator: Adobe Illustrator 24.1.2, SVG Export Plug-In . SVG Version: 6.00 Build 0)  -->
<svg version="1.1" id="Ebene_1" xmlns="http://www.w3.org/2000/svg" xmlns:xlink="http://www.w3.org/1999/xlink" x="0px" y="0px"
	 viewBox="0 0 100.3 99.3" style="enable-background:new 0 0 100.3 99.3;" xml:space="preserve">
<style type="text/css">
	.st0{fill:#F5F5F5;}
	.st1{clip-path:url(#SVGID_2_);fill:none;stroke:#1D1D1B;stroke-width:2.4749;}
	.st2{fill:#1D1D1B;}
</style>
<rect class="st0" width="100.3" height="99.3"/>
<g>
	<g>
		<defs>
			<rect id="SVGID_1_" x="21" y="15.6" width="58.7" height="67.7"/>
		</defs>
		<clipPath id="SVGID_2_">
			<use xlink:href="#SVGID_1_"  style="overflow:visible;"/>
		</clipPath>
		<path class="st1" d="M22.2,16.9h56.3v29.6C78.5,70.3,51.7,82,51.7,82S22.3,70.8,22.3,45L22.2,16.9L22.2,16.9z"/>
	</g>
	<path class="st2" d="M61.5,52.4l-10.9,6.1l-10.5-6.3V39.4l10.5-6.3l10.9,6.1V52.4L61.5,52.4z M69,48.2L69,48.2l-4.1,2.3v-9.4
		l4.1,2.3v0c0.8,0.4,1.8,0.2,2.3-0.7c0.5-0.8,0.2-1.8-0.6-2.3l0,0l-3.8-2.2l2.8-1.6l0,0c0.8-0.5,1.1-1.5,0.6-2.3
		c-0.5-0.8-1.5-1.1-2.3-0.6v0l-3,1.7v-4.9h0c0-0.9-0.8-1.7-1.7-1.7c-0.9,0-1.7,0.7-1.7,1.7h0v4.7L54,31.1l4.1-2.4l0,0
		c0.8-0.5,1-1.5,0.6-2.3c-0.5-0.8-1.5-1.1-2.3-0.6l0,0l-4,2.4l0-3.7h0c0-0.9-0.8-1.7-1.7-1.7c-0.9,0-1.7,0.7-1.7,1.7h0l0,3.8
		L44.8,26l0,0c-0.8-0.5-1.8-0.2-2.3,0.6c-0.5,0.8-0.2,1.8,0.6,2.3v0l4.1,2.3l-7.1,4.3v-4.8h0c0-0.9-0.8-1.7-1.7-1.7
		c-0.9,0-1.7,0.7-1.7,1.7h0v5l-3.3-1.9v0c-0.8-0.5-1.8-0.2-2.3,0.6c-0.5,0.8-0.2,1.8,0.6,2.3l0,0l3.2,1.9L30.9,41l0,0
		c-0.8,0.5-1.1,1.5-0.6,2.3c0.5,0.8,1.5,1.1,2.3,0.6h0l4.1-2.5v8.7l-4.1-2.5l0,0c-0.8-0.5-1.8-0.2-2.3,0.6c-0.5,0.8-0.2,1.8,0.6,2.3
		l0,0l4.4,2.6l-3.6,2.5l0,0c-0.8,0.5-1,1.6-0.4,2.3c0.5,0.8,1.6,1,2.3,0.4v0l3.2-2.2v4h0c0,0.9,0.8,1.7,1.7,1.7
		c0.9,0,1.7-0.8,1.7-1.7h0v-4.2l7.1,4.3l-4.1,2.3v0c-0.8,0.5-1.1,1.5-0.6,2.3c0.5,0.8,1.5,1.1,2.3,0.6l0,0l4.1-2.3l0,3.8h0
		c0,0.9,0.8,1.7,1.7,1.7c0.9,0,1.7-0.8,1.7-1.7h0l0-3.7l4,2.4l0,0c0.8,0.5,1.8,0.2,2.3-0.6c0.5-0.8,0.2-1.8-0.6-2.3l0,0L54,60.5
		l7.5-4.2v4h0c0,0.9,0.8,1.7,1.7,1.7c0.9,0,1.7-0.8,1.7-1.7v-3.8l2.9,2l0,0c0.8,0.5,1.8,0.3,2.3-0.4c0.5-0.8,0.3-1.8-0.4-2.3l0,0
		l-3.2-2.2l4.2-2.3l0,0c0.8-0.5,1.1-1.5,0.6-2.3C70.8,48,69.8,47.7,69,48.2L69,48.2z"/>
</g>
</svg>
